<?xml version="1.0" encoding="UTF-8"?>
<!DOCTYPE svg PUBLIC "-//W3C//DTD SVG 1.1//EN" "http://www.w3.org/Graphics/SVG/1.1/DTD/svg11.dtd">
<svg xmlns="http://www.w3.org/2000/svg" version="1.1" width="355px" height="264px" style="shape-rendering:geometricPrecision; text-rendering:geometricPrecision; image-rendering:optimizeQuality; fill-rule:evenodd; clip-rule:evenodd" xmlns:xlink="http://www.w3.org/1999/xlink">
<g><path style="opacity:0.989" fill="#f9fafa" d="M 207.5,20.5 C 206.12,21.7065 204.953,21.3731 204,19.5C 197.722,21.3796 191.389,23.0463 185,24.5C 181.219,23.8537 177.553,24.5204 174,26.5C 171.266,26.3671 168.599,26.3671 166,26.5C 163.815,27.6695 161.649,28.8362 159.5,30C 154.481,30.0582 149.648,30.8916 145,32.5C 144.667,32.1667 144.333,31.8333 144,31.5C 133.779,33.4646 123.445,36.1312 113,39.5C 112.228,39.3552 111.561,39.0219 111,38.5C 108.614,40.0911 105.947,41.0911 103,41.5C 102.667,41.1667 102.333,40.8333 102,40.5C 98.7335,42.1011 95.2335,42.9345 91.5,43C 87.9603,43.734 84.627,44.9006 81.5,46.5C 78.8895,46.24 76.3895,46.24 74,46.5C 69.759,47.7504 65.5923,49.2504 61.5,51C 60.1312,52.7189 59.1312,54.5522 58.5,56.5C 55.4948,46.8239 51.1614,37.8239 45.5,29.5C 95.843,19.9426 146.176,10.2759 196.5,0.5C 197.5,0.833333 198.5,1.16667 199.5,1.5C 203.013,7.52 205.68,13.8533 207.5,20.5 Z"/></g>
<g><path style="opacity:1" fill="#d2e6ec" d="M 208.5,22.5 C 210.279,26.5948 211.612,30.9281 212.5,35.5C 212.209,36.6491 211.376,37.3158 210,37.5C 163.839,46.3375 118.006,56.0042 72.5,66.5C 68.8026,67.0078 65.1359,67.6745 61.5,68.5C 61.5,67.5 61.5,66.5 61.5,65.5C 62.3913,63.7095 63.3913,61.8761 64.5,60C 93.8396,51.9318 123.506,45.2651 153.5,40C 166.165,36.8865 178.665,33.3865 191,29.5C 191.772,29.6448 192.439,29.9781 193,30.5C 197.732,29.1271 202.565,28.1271 207.5,27.5C 207.629,25.7839 207.962,24.1172 208.5,22.5 Z"/></g>
<g><path style="opacity:1" fill="#f9fafb" d="M 283.5,56.5 C 288.834,64.169 292.834,72.5024 295.5,81.5C 295.631,82.2389 295.464,82.9056 295,83.5C 294.047,81.4078 292.714,81.0745 291,82.5C 289.601,81.7734 288.101,81.2734 286.5,81C 287.993,79.8438 287.826,79.0104 286,78.5C 284.273,78.6465 284.106,79.3131 285.5,80.5C 275.842,81.9449 266.176,83.4449 256.5,85C 254.743,86.7495 252.743,87.9162 250.5,88.5C 224.073,93.8478 197.74,99.5145 171.5,105.5C 170.609,106.11 169.609,106.443 168.5,106.5C 166.901,106.232 165.568,106.566 164.5,107.5C 163.897,109.19 162.897,110.69 161.5,112C 152.045,113.156 142.878,115.323 134,118.5C 133.802,120.382 133.302,122.048 132.5,123.5C 126.299,98.6381 111.299,81.6381 87.5,72.5C 83.3263,70.936 78.993,70.2694 74.5,70.5C 74.3893,69.8826 74.056,69.3826 73.5,69C 128.73,59.1088 183.73,48.1088 238.5,36C 252.574,34.5801 264.907,38.5801 275.5,48C 278.399,50.7291 281.066,53.5624 283.5,56.5 Z"/></g>
<g><path style="opacity:1" fill="#683d25" d="M 290.5,33.5 C 290.5,34.1667 290.833,34.5 291.5,34.5C 287.031,35.8067 282.365,36.3067 277.5,36C 278.328,35.0853 279.328,34.4186 280.5,34C 283.817,33.5017 287.15,33.335 290.5,33.5 Z"/></g>
<g><path style="opacity:1" fill="#da8645" d="M 290.5,33.5 C 287.15,33.335 283.817,33.5017 280.5,34C 279.328,34.4186 278.328,35.0853 277.5,36C 282.365,36.3067 287.031,35.8067 291.5,34.5C 294.57,34.3677 297.57,34.701 300.5,35.5C 297.036,38.059 293.036,39.8923 288.5,41C 294.14,40.19 299.807,39.3567 305.5,38.5C 309.392,40.0621 312.725,42.3954 315.5,45.5C 307.832,45.9048 300.165,46.4048 292.5,47C 288.867,47.1489 285.534,47.9823 282.5,49.5C 275.629,42.6115 267.963,36.9448 259.5,32.5C 269.048,29.419 278.715,28.919 288.5,31C 289.756,31.4169 290.423,32.2502 290.5,33.5 Z"/></g>
<g><path style="opacity:1" fill="#4994b6" d="M 45.5,29.5 C 51.1614,37.8239 55.4948,46.8239 58.5,56.5C 59.696,59.4214 60.696,62.4214 61.5,65.5C 61.5,66.5 61.5,67.5 61.5,68.5C 65.1359,67.6745 68.8026,67.0078 72.5,66.5C 76.1716,67.0447 75.8383,67.3781 71.5,67.5C 71.5,68.5 71.5,69.5 71.5,70.5C 72.5,70.5 73.5,70.5 74.5,70.5C 78.993,70.2694 83.3263,70.936 87.5,72.5C 87.4431,73.609 87.1098,74.609 86.5,75.5C 83.8728,74.9084 81.2062,74.5751 78.5,74.5C 78.1667,74.5 77.8333,74.5 77.5,74.5C 76.7375,73.7321 75.7375,73.2321 74.5,73C 71.1832,72.5017 67.8499,72.335 64.5,72.5C 62.5,72.5 60.5,72.5 58.5,72.5C 58.8769,69.4752 59.0435,66.4752 59,63.5C 56.8913,62.9647 56.3913,61.9647 57.5,60.5C 56.452,59.452 55.452,58.452 54.5,57.5C 52.4,53.7984 50.9,49.7984 50,45.5C 47.3661,41.0646 44.8661,36.5646 42.5,32C 42.7483,30.2509 43.7483,29.4176 45.5,29.5 Z"/></g>
<g><path style="opacity:1" fill="#6db2ca" d="M 259.5,32.5 C 267.963,36.9448 275.629,42.6115 282.5,49.5C 283.5,50.8333 284.5,52.1667 285.5,53.5C 284.599,54.2905 283.932,55.2905 283.5,56.5C 281.066,53.5624 278.399,50.7291 275.5,48C 264.907,38.5801 252.574,34.5801 238.5,36C 183.73,48.1088 128.73,59.1088 73.5,69C 74.056,69.3826 74.3893,69.8826 74.5,70.5C 73.5,70.5 72.5,70.5 71.5,70.5C 71.5,69.5 71.5,68.5 71.5,67.5C 75.8383,67.3781 76.1716,67.0447 72.5,66.5C 118.006,56.0042 163.839,46.3375 210,37.5C 211.376,37.3158 212.209,36.6491 212.5,35.5C 213.817,35.821 215.151,36.1543 216.5,36.5C 226.264,34.3803 236.097,32.7137 246,31.5C 250.502,31.8816 255.002,32.2149 259.5,32.5 Z"/></g>
<g><path style="opacity:1" fill="#9c5e35" d="M 300.5,35.5 C 302.113,36.6923 303.78,37.6923 305.5,38.5C 299.807,39.3567 294.14,40.19 288.5,41C 293.036,39.8923 297.036,38.059 300.5,35.5 Z"/></g>
<g><path style="opacity:1" fill="#e2eff1" d="M 207.5,20.5 C 208.338,20.8417 208.672,21.5084 208.5,22.5C 207.962,24.1172 207.629,25.7839 207.5,27.5C 202.565,28.1271 197.732,29.1271 193,30.5C 192.439,29.9781 191.772,29.6448 191,29.5C 178.665,33.3865 166.165,36.8865 153.5,40C 123.506,45.2651 93.8396,51.9318 64.5,60C 63.3913,61.8761 62.3913,63.7095 61.5,65.5C 60.696,62.4214 59.696,59.4214 58.5,56.5C 59.1312,54.5522 60.1312,52.7189 61.5,51C 65.5923,49.2504 69.759,47.7504 74,46.5C 76.3895,46.24 78.8895,46.24 81.5,46.5C 84.627,44.9006 87.9603,43.734 91.5,43C 95.2335,42.9345 98.7335,42.1011 102,40.5C 102.333,40.8333 102.667,41.1667 103,41.5C 105.947,41.0911 108.614,40.0911 111,38.5C 111.561,39.0219 112.228,39.3552 113,39.5C 123.445,36.1312 133.779,33.4646 144,31.5C 144.333,31.8333 144.667,32.1667 145,32.5C 149.648,30.8916 154.481,30.0582 159.5,30C 161.649,28.8362 163.815,27.6695 166,26.5C 168.599,26.3671 171.266,26.3671 174,26.5C 177.553,24.5204 181.219,23.8537 185,24.5C 191.389,23.0463 197.722,21.3796 204,19.5C 204.953,21.3731 206.12,21.7065 207.5,20.5 Z"/></g>
<g><path style="opacity:0.031" fill="#0e4666" d="M 0.5,46.5 C 0.896566,45.475 1.56323,45.3083 2.5,46C 1.90558,46.4643 1.23891,46.631 0.5,46.5 Z"/></g>
<g><path style="opacity:0.031" fill="#0e4766" d="M 339.5,45.5 C 340.833,46.1667 340.833,46.1667 339.5,45.5 Z"/></g>
<g><path style="opacity:0.031" fill="#0e4766" d="M 342.5,45.5 C 343.833,46.1667 343.833,46.1667 342.5,45.5 Z"/></g>
<g><path style="opacity:1" fill="#e69b54" d="M 315.5,45.5 C 318.724,48.2184 321.891,51.2184 325,54.5C 325.483,55.448 325.649,56.448 325.5,57.5C 317.239,59.797 308.906,61.797 300.5,63.5C 300.062,63.5654 299.728,63.3988 299.5,63C 303.474,59.5618 302.808,58.7285 297.5,60.5C 298.218,55.2965 301.218,53.2965 306.5,54.5C 306.5,53.5 306.5,52.5 306.5,51.5C 299.48,51.0696 292.814,52.0696 286.5,54.5C 285.833,54.5 285.5,54.1667 285.5,53.5C 284.5,52.1667 283.5,50.8333 282.5,49.5C 285.534,47.9823 288.867,47.1489 292.5,47C 300.165,46.4048 307.832,45.9048 315.5,45.5 Z"/></g>
<g><path style="opacity:1" fill="#87c3d5" d="M 235.5,44.5 C 238.022,44.1281 240.022,44.9614 241.5,47C 239.089,48.5829 236.422,49.5829 233.5,50C 201.662,56.501 169.828,63.001 138,69.5C 136.049,69.1123 134.549,68.1123 133.5,66.5C 167.658,59.3223 201.658,51.989 235.5,44.5 Z"/></g>
<g><path style="opacity:0.031" fill="#0d4566" d="M 4.5,55.5 C 5.83333,56.1667 5.83333,56.1667 4.5,55.5 Z"/></g>
<g><path style="opacity:0.031" fill="#0b4166" d="M 326.5,57.5 C 326.369,56.7611 326.536,56.0944 327,55.5C 327.692,56.4368 327.525,57.1034 326.5,57.5 Z"/></g>
<g><path style="opacity:1" fill="#d78444" d="M 297.5,60.5 C 296.559,62.0495 295.893,63.7162 295.5,65.5C 294.833,65.5 294.5,65.8333 294.5,66.5C 291.846,62.5368 289.18,58.5368 286.5,54.5C 292.814,52.0696 299.48,51.0696 306.5,51.5C 306.5,52.5 306.5,53.5 306.5,54.5C 301.218,53.2965 298.218,55.2965 297.5,60.5 Z"/></g>
<g><path style="opacity:1" fill="#85c4d8" d="M 252.5,60.5 C 256.485,60.6294 257.818,62.4628 256.5,66C 247.637,67.706 238.803,69.5393 230,71.5C 226.822,70.6155 225.989,68.7821 227.5,66C 236.083,64.7193 244.416,62.8859 252.5,60.5 Z"/></g>
<g><path style="opacity:0.096" fill="#103c5f" d="M 325.5,57.5 C 325.833,57.5 326.167,57.5 326.5,57.5C 326.67,58.8221 326.337,59.9887 325.5,61C 326.167,61.3333 326.833,61.6667 327.5,62C 326.072,62.5791 324.738,62.4124 323.5,61.5C 323.733,59.9382 324.4,58.6049 325.5,57.5 Z"/></g>
<g><path style="opacity:0.031" fill="#0e4566" d="M 40.5,62.5 C 41.8333,63.1667 41.8333,63.1667 40.5,62.5 Z"/></g>
<g><path style="opacity:1" fill="#a54f20" d="M 300.5,63.5 C 299.07,64.5375 297.403,65.2041 295.5,65.5C 295.893,63.7162 296.559,62.0495 297.5,60.5C 302.808,58.7285 303.474,59.5618 299.5,63C 299.728,63.3988 300.062,63.5654 300.5,63.5 Z"/></g>
<g><path style="opacity:1" fill="#302020" d="M 323.5,61.5 C 321.969,62.9245 322.302,63.5912 324.5,63.5C 320.409,64.8955 316.076,65.5621 311.5,65.5C 310.761,65.631 310.094,65.4643 309.5,65C 313.77,62.2999 318.437,61.1332 323.5,61.5 Z"/></g>
<g><path style="opacity:0.031" fill="#0d4466" d="M 351.5,63.5 C 351.897,62.475 352.563,62.3083 353.5,63C 352.906,63.4643 352.239,63.631 351.5,63.5 Z"/></g>
<g><path style="opacity:0.031" fill="#0f4566" d="M 38.5,64.5 C 39.8333,65.1667 39.8333,65.1667 38.5,64.5 Z"/></g>
<g><path style="opacity:0.031" fill="#0f4466" d="M 48.5,64.5 C 50.0491,64.7358 51.5491,64.7358 53,64.5C 53.5,65 54,65.5 54.5,66C 50.8333,66.6667 47.1667,66.6667 43.5,66C 45.3817,65.8019 47.0484,65.3019 48.5,64.5 Z"/></g>
<g><path style="opacity:1" fill="#2a6988" d="M 54.5,57.5 C 55.452,58.452 56.452,59.452 57.5,60.5C 56.3913,61.9647 56.8913,62.9647 59,63.5C 59.0435,66.4752 58.8769,69.4752 58.5,72.5C 60.5,72.5 62.5,72.5 64.5,72.5C 61.1667,73.1667 57.8333,73.8333 54.5,74.5C 52.8828,75.038 51.2161,75.3713 49.5,75.5C 49.0825,74.7784 48.4158,74.2784 47.5,74C 53.1748,73.5359 53.5081,72.8693 48.5,72C 50,71.5 51.5,71 53,70.5C 53.3808,71.4818 54.2141,72.1485 55.5,72.5C 56.1667,72.1667 56.8333,71.8333 57.5,71.5C 57.0065,66.9441 56.0065,62.2775 54.5,57.5 Z"/></g>
<g><path style="opacity:0.031" fill="#0d4466" d="M 347.5,65.5 C 349.364,64.2072 351.364,64.2072 353.5,65.5C 351.484,66.6942 349.484,66.6942 347.5,65.5 Z"/></g>
<g><path style="opacity:1" fill="#4f2012" d="M 325.5,57.5 C 324.4,58.6049 323.733,59.9382 323.5,61.5C 318.437,61.1332 313.77,62.2999 309.5,65C 310.094,65.4643 310.761,65.631 311.5,65.5C 306.383,66.9887 301.049,67.9887 295.5,68.5C 294.662,68.1583 294.328,67.4916 294.5,66.5C 294.5,65.8333 294.833,65.5 295.5,65.5C 297.403,65.2041 299.07,64.5375 300.5,63.5C 308.906,61.797 317.239,59.797 325.5,57.5 Z"/></g>
<g><path style="opacity:1" fill="#d28648" d="M 324.5,63.5 C 327.187,63.3359 329.854,63.5026 332.5,64C 331.944,64.3826 331.611,64.8826 331.5,65.5C 329.731,67.3974 327.398,68.564 324.5,69C 315.888,71.1534 307.222,72.9867 298.5,74.5C 296.992,72.8185 295.992,70.8185 295.5,68.5C 301.049,67.9887 306.383,66.9887 311.5,65.5C 316.076,65.5621 320.409,64.8955 324.5,63.5 Z"/></g>
<g><path style="opacity:1" fill="#66a6c1" d="M 285.5,53.5 C 285.5,54.1667 285.833,54.5 286.5,54.5C 289.18,58.5368 291.846,62.5368 294.5,66.5C 294.328,67.4916 294.662,68.1583 295.5,68.5C 295.992,70.8185 296.992,72.8185 298.5,74.5C 298.433,75.9587 298.766,77.2921 299.5,78.5C 299.557,79.609 299.89,80.609 300.5,81.5C 301.213,85.687 302.213,89.687 303.5,93.5C 303.5,95.5 303.5,97.5 303.5,99.5C 302.71,100.609 302.21,101.942 302,103.5C 301.667,102.167 301.333,100.833 301,99.5C 300.827,105.016 300.327,110.349 299.5,115.5C 299.824,108.646 299.491,101.979 298.5,95.5C 298.344,90.5286 297.344,85.862 295.5,81.5C 292.834,72.5024 288.834,64.169 283.5,56.5C 283.932,55.2905 284.599,54.2905 285.5,53.5 Z"/></g>
<g><path style="opacity:0.733" fill="#444d5b" d="M 333.5,68.5 C 334.906,68.9731 335.573,69.9731 335.5,71.5C 335.167,71.5 334.833,71.5 334.5,71.5C 333.89,70.609 333.557,69.609 333.5,68.5 Z"/></g>
<g><path style="opacity:1" fill="#bc6730" d="M 331.5,65.5 C 332.906,65.9731 333.573,66.9731 333.5,68.5C 333.557,69.609 333.89,70.609 334.5,71.5C 322.909,74.1544 311.243,76.4877 299.5,78.5C 298.766,77.2921 298.433,75.9587 298.5,74.5C 307.222,72.9867 315.888,71.1534 324.5,69C 327.398,68.564 329.731,67.3974 331.5,65.5 Z"/></g>
<g><path style="opacity:0.031" fill="#0c4266" d="M 33.5,75.5 C 33.8966,74.475 34.5632,74.3083 35.5,75C 34.9056,75.4643 34.2389,75.631 33.5,75.5 Z"/></g>
<g><path style="opacity:1" fill="#704933" d="M 64.5,72.5 C 67.8499,72.335 71.1832,72.5017 74.5,73C 75.7375,73.2321 76.7375,73.7321 77.5,74.5C 75.5853,74.2155 73.9187,74.5489 72.5,75.5C 66.491,75.299 60.491,74.9657 54.5,74.5C 57.8333,73.8333 61.1667,73.1667 64.5,72.5 Z"/></g>
<g><path style="opacity:1" fill="#d48342" d="M 334.5,71.5 C 334.833,71.5 335.167,71.5 335.5,71.5C 335.5,72.8333 335.5,74.1667 335.5,75.5C 334.735,75.0766 333.902,74.7432 333,74.5C 322.266,77.3924 311.433,79.7258 300.5,81.5C 299.89,80.609 299.557,79.609 299.5,78.5C 311.243,76.4877 322.909,74.1544 334.5,71.5 Z"/></g>
<g><path style="opacity:1" fill="#6b5550" d="M 335.5,71.5 C 337.109,72.6654 337.443,73.9988 336.5,75.5C 336.167,75.5 335.833,75.5 335.5,75.5C 335.5,74.1667 335.5,72.8333 335.5,71.5 Z"/></g>
<g><path style="opacity:0.196" fill="#1d4962" d="M 46.5,75.5 C 46.1583,76.3382 45.4916,76.6716 44.5,76.5C 42.4352,76.5172 40.4352,76.8505 38.5,77.5C 38.6107,76.8826 38.944,76.3826 39.5,76C 41.764,75.7638 43.9307,75.2638 46,74.5C 46.3988,74.7284 46.5654,75.0618 46.5,75.5 Z"/></g>
<g><path style="opacity:1" fill="#86c2d5" d="M 207.5,70.5 C 210.187,70.3359 212.854,70.5026 215.5,71C 217.872,72.4705 217.872,73.6372 215.5,74.5C 197.453,78.3756 179.453,82.3756 161.5,86.5C 159.447,85.0606 158.447,83.0606 158.5,80.5C 175.002,77.4001 191.335,74.0668 207.5,70.5 Z"/></g>
<g><path style="opacity:1" fill="#c67a3e" d="M 54.5,74.5 C 60.491,74.9657 66.491,75.299 72.5,75.5C 74.3786,75.3932 74.7119,75.8932 73.5,77C 68.422,77.8488 63.422,79.0155 58.5,80.5C 54.5295,79.8028 50.5295,79.3028 46.5,79C 45.6195,78.2917 44.9528,77.4584 44.5,76.5C 45.4916,76.6716 46.1583,76.3382 46.5,75.5C 47.5,75.5 48.5,75.5 49.5,75.5C 51.2161,75.3713 52.8828,75.038 54.5,74.5 Z"/></g>
<g><path style="opacity:0.096" fill="#1f4461" d="M 33.5,78.5 C 31.5739,79.4861 29.5739,80.4861 27.5,81.5C 28.3816,79.6162 29.8816,78.2829 32,77.5C 32.3826,78.056 32.8826,78.3893 33.5,78.5 Z"/></g>
<g><path style="opacity:0.031" fill="#28435d" d="M 338.5,81.5 C 338.5,81.1667 338.5,80.8333 338.5,80.5C 339.497,80.4701 340.164,80.9701 340.5,82C 341.335,83.1309 341.335,83.9642 340.5,84.5C 339.833,83.5 339.167,82.5 338.5,81.5 Z"/></g>
<g><path style="opacity:1" fill="#a55b2f" d="M 82.5,80.5 C 84.9699,80.6535 86.9699,81.6535 88.5,83.5C 83.7877,84.0181 79.121,84.5181 74.5,85C 77.3591,83.7399 80.0258,82.2399 82.5,80.5 Z"/></g>
<g><path style="opacity:1" fill="#69b7ce" d="M 151.5,82.5 C 155.509,82.0136 157.342,83.6803 157,87.5C 156.282,88.4506 155.449,88.6172 154.5,88C 152.393,86.7365 151.393,84.9032 151.5,82.5 Z"/></g>
<g><path style="opacity:1" fill="#b46330" d="M 335.5,75.5 C 335.833,75.5 336.167,75.5 336.5,75.5C 337.441,77.0495 338.107,78.7162 338.5,80.5C 338.5,80.8333 338.5,81.1667 338.5,81.5C 327.563,86.84 315.896,90.84 303.5,93.5C 302.213,89.687 301.213,85.687 300.5,81.5C 311.433,79.7258 322.266,77.3924 333,74.5C 333.902,74.7432 334.735,75.0766 335.5,75.5 Z"/></g>
<g><path style="opacity:1" fill="#274056" d="M 25.5,83.5 C 25.1667,84.5 24.5,85.1667 23.5,85.5C 23.0618,85.5654 22.7284,85.3988 22.5,85C 23.2438,83.9614 24.2438,83.4614 25.5,83.5 Z"/></g>
<g><path style="opacity:0.08" fill="#143d60" d="M 23.5,86.5 C 23.1667,87.1667 22.8333,87.8333 22.5,88.5C 21.2426,87.3774 21.5759,86.7107 23.5,86.5 Z"/></g>
<g><path style="opacity:1" fill="#d3894a" d="M 78.5,79.5 C 80.099,79.2322 81.4324,79.5655 82.5,80.5C 80.0258,82.2399 77.3591,83.7399 74.5,85C 79.121,84.5181 83.7877,84.0181 88.5,83.5C 90.9237,84.0305 93.257,84.8638 95.5,86C 100.045,89.0435 103.711,92.8769 106.5,97.5C 103.994,98.6631 101.327,98.6631 98.5,97.5C 95.9365,97.737 95.9365,98.237 98.5,99C 97.9056,99.4643 97.2389,99.631 96.5,99.5C 95.0497,97.6174 93.0497,96.6174 90.5,96.5C 86.8548,97.1162 83.1881,97.4495 79.5,97.5C 74.187,92.5217 68.8537,87.5217 63.5,82.5C 68.2765,80.5363 73.2765,79.5363 78.5,79.5 Z"/></g>
<g><path style="opacity:0.065" fill="#20415b" d="M 21.5,89.5 C 21.5,90.5 21.5,91.5 21.5,92.5C 19.0532,92.615 17.0532,93.615 15.5,95.5C 16.5622,92.622 18.5622,90.622 21.5,89.5 Z"/></g>
<g><path style="opacity:1" fill="#8a4724" d="M 72.5,75.5 C 73.9187,74.5489 75.5853,74.2155 77.5,74.5C 77.8333,74.5 78.1667,74.5 78.5,74.5C 78.0825,75.2216 77.4158,75.7216 76.5,76C 80.3298,76.2757 80.9965,77.4424 78.5,79.5C 73.2765,79.5363 68.2765,80.5363 63.5,82.5C 68.8537,87.5217 74.187,92.5217 79.5,97.5C 78.621,99.228 77.9543,101.061 77.5,103C 77.8618,104.434 78.5285,105.601 79.5,106.5C 79.5,107.5 79.5,108.5 79.5,109.5C 71.4481,95.8832 59.6148,87.5499 44,84.5C 33.8385,85.0802 26.1719,89.7469 21,98.5C 19.6035,101.354 18.1035,104.02 16.5,106.5C 15.7839,106.217 14.9506,105.884 14,105.5C 13.51,104.207 13.3433,102.873 13.5,101.5C 13.6036,99.2972 14.2702,97.2972 15.5,95.5C 17.0532,93.615 19.0532,92.615 21.5,92.5C 21.5,91.5 21.5,90.5 21.5,89.5C 22.1667,89.5 22.5,89.1667 22.5,88.5C 22.8333,87.8333 23.1667,87.1667 23.5,86.5C 23.5,86.1667 23.5,85.8333 23.5,85.5C 24.5,85.1667 25.1667,84.5 25.5,83.5C 25.5,82.1667 26.1667,81.5 27.5,81.5C 29.5739,80.4861 31.5739,79.4861 33.5,78.5C 34.4584,78.0472 35.2917,77.3805 36,76.5C 36.6708,77.2524 37.5041,77.5858 38.5,77.5C 40.4352,76.8505 42.4352,76.5172 44.5,76.5C 44.9528,77.4584 45.6195,78.2917 46.5,79C 50.5295,79.3028 54.5295,79.8028 58.5,80.5C 63.422,79.0155 68.422,77.8488 73.5,77C 74.7119,75.8932 74.3786,75.3932 72.5,75.5 Z"/></g>
<g><path style="opacity:1" fill="#643119" d="M 78.5,74.5 C 81.2062,74.5751 83.8728,74.9084 86.5,75.5C 104.072,82.0712 116.405,94.0712 123.5,111.5C 123.421,115.202 123.754,118.868 124.5,122.5C 124.014,124.304 123.347,125.971 122.5,127.5C 121.833,125.833 121.167,124.167 120.5,122.5C 120.5,121.833 120.5,121.167 120.5,120.5C 120.672,119.508 120.338,118.842 119.5,118.5C 119.34,116.847 118.674,115.514 117.5,114.5C 116.529,112.517 115.529,110.517 114.5,108.5C 114.068,107.29 113.401,106.29 112.5,105.5C 110.853,102.527 108.853,99.8599 106.5,97.5C 103.711,92.8769 100.045,89.0435 95.5,86C 93.257,84.8638 90.9237,84.0305 88.5,83.5C 86.9699,81.6535 84.9699,80.6535 82.5,80.5C 81.4324,79.5655 80.099,79.2322 78.5,79.5C 80.9965,77.4424 80.3298,76.2757 76.5,76C 77.4158,75.7216 78.0825,75.2216 78.5,74.5 Z"/></g>
<g><path style="opacity:1" fill="#60aac6" d="M 87.5,72.5 C 111.299,81.6381 126.299,98.6381 132.5,123.5C 132.833,124.167 133.167,124.833 133.5,125.5C 133.5,125.833 133.5,126.167 133.5,126.5C 132.167,125.167 130.833,125.167 129.5,126.5C 128.262,121.105 126.262,116.105 123.5,111.5C 116.405,94.0712 104.072,82.0712 86.5,75.5C 87.1098,74.609 87.4431,73.609 87.5,72.5 Z"/></g>
<g><path style="opacity:1" fill="#7dbcd2" d="M 250.5,88.5 C 255.574,88.3605 256.574,90.1939 253.5,94C 227.333,99.5841 201.166,105.084 175,110.5C 171.997,110.257 170.83,108.59 171.5,105.5C 197.74,99.5145 224.073,93.8478 250.5,88.5 Z"/></g>
<g><path style="opacity:1" fill="#6d2f18" d="M 96.5,99.5 C 96.6716,100.492 96.3382,101.158 95.5,101.5C 89.2073,99.7448 83.8739,101.411 79.5,106.5C 78.5285,105.601 77.8618,104.434 77.5,103C 77.9543,101.061 78.621,99.228 79.5,97.5C 83.1881,97.4495 86.8548,97.1162 90.5,96.5C 93.0497,96.6174 95.0497,97.6174 96.5,99.5 Z"/></g>
<g><path style="opacity:1" fill="#924824" d="M 338.5,81.5 C 339.167,82.5 339.833,83.5 340.5,84.5C 341.793,87.6791 342.46,91.0124 342.5,94.5C 342.5,96.5 342.5,98.5 342.5,100.5C 329.783,102.512 317.117,104.845 304.5,107.5C 304.721,104.721 304.388,102.054 303.5,99.5C 303.5,97.5 303.5,95.5 303.5,93.5C 315.896,90.84 327.563,86.84 338.5,81.5 Z"/></g>
<g><path style="opacity:1" fill="#521b0e" d="M 95.5,101.5 C 92.271,103.942 89.271,106.608 86.5,109.5C 84.6675,110.248 83.0009,111.248 81.5,112.5C 80.5987,111.71 79.9321,110.71 79.5,109.5C 79.5,108.5 79.5,107.5 79.5,106.5C 83.8739,101.411 89.2073,99.7448 95.5,101.5 Z"/></g>
<g><path style="opacity:1" fill="#c2753d" d="M 106.5,97.5 C 108.853,99.8599 110.853,102.527 112.5,105.5C 105.429,110.221 98.4285,115.221 91.5,120.5C 89.6396,116.917 87.9729,113.251 86.5,109.5C 89.271,106.608 92.271,103.942 95.5,101.5C 96.3382,101.158 96.6716,100.492 96.5,99.5C 97.2389,99.631 97.9056,99.4643 98.5,99C 95.9365,98.237 95.9365,97.737 98.5,97.5C 101.327,98.6631 103.994,98.6631 106.5,97.5 Z"/></g>
<g><path style="opacity:1" fill="#66afc9" d="M 168.5,106.5 C 169.341,108.379 169.675,110.379 169.5,112.5C 165.5,113.167 163.833,111.5 164.5,107.5C 165.568,106.566 166.901,106.232 168.5,106.5 Z"/></g>
<g><path style="opacity:1" fill="#1f0b07" d="M 338.5,105.5 C 338.389,106.117 338.056,106.617 337.5,107C 339.066,107.608 340.4,108.442 341.5,109.5C 331.84,111.001 322.173,112.168 312.5,113C 320.99,109.78 329.657,107.28 338.5,105.5 Z"/></g>
<g><path style="opacity:1" fill="#6e331a" d="M 342.5,94.5 C 343.638,97.3035 343.805,100.304 343,103.5C 341.67,104.582 340.17,105.249 338.5,105.5C 329.657,107.28 320.99,109.78 312.5,113C 322.173,112.168 331.84,111.001 341.5,109.5C 343.048,109.821 343.715,110.821 343.5,112.5C 343.5,113.5 343.5,114.5 343.5,115.5C 341.143,115.337 338.81,115.503 336.5,116C 325.554,119.151 314.554,121.984 303.5,124.5C 303.5,123.5 303.5,122.5 303.5,121.5C 304.441,116.93 304.774,112.263 304.5,107.5C 317.117,104.845 329.783,102.512 342.5,100.5C 342.5,98.5 342.5,96.5 342.5,94.5 Z"/></g>
<g><path style="opacity:0.063" fill="#003b67" d="M 10.5,112.5 C 9.83333,111.167 9.83333,111.167 10.5,112.5 Z"/></g>
<g><path style="opacity:1" fill="#e8f2f4" d="M 295.5,81.5 C 297.344,85.862 298.344,90.5286 298.5,95.5C 298.657,96.8734 298.49,98.2068 298,99.5C 297.71,97.9559 297.044,96.6226 296,95.5C 282.738,96.7657 269.572,99.599 256.5,104C 215.41,111.027 174.41,118.194 133.5,125.5C 133.167,124.833 132.833,124.167 132.5,123.5C 133.302,122.048 133.802,120.382 134,118.5C 142.878,115.323 152.045,113.156 161.5,112C 162.897,110.69 163.897,109.19 164.5,107.5C 163.833,111.5 165.5,113.167 169.5,112.5C 169.675,110.379 169.341,108.379 168.5,106.5C 169.609,106.443 170.609,106.11 171.5,105.5C 170.83,108.59 171.997,110.257 175,110.5C 201.166,105.084 227.333,99.5841 253.5,94C 256.574,90.1939 255.574,88.3605 250.5,88.5C 252.743,87.9162 254.743,86.7495 256.5,85C 266.176,83.4449 275.842,81.9449 285.5,80.5C 284.106,79.3131 284.273,78.6465 286,78.5C 287.826,79.0104 287.993,79.8438 286.5,81C 288.101,81.2734 289.601,81.7734 291,82.5C 292.714,81.0745 294.047,81.4078 295,83.5C 295.464,82.9056 295.631,82.2389 295.5,81.5 Z"/></g>
<g><path style="opacity:1" fill="#cb7a3e" d="M 114.5,108.5 C 115.529,110.517 116.529,112.517 117.5,114.5C 94.1007,120.001 93.1007,118.001 114.5,108.5 Z"/></g>
<g><path style="opacity:1" fill="#884423" d="M 86.5,109.5 C 87.9729,113.251 89.6396,116.917 91.5,120.5C 91.62,121.586 92.2867,122.253 93.5,122.5C 102.316,121.222 110.982,119.889 119.5,118.5C 120.338,118.842 120.672,119.508 120.5,120.5C 110.994,122.452 101.661,124.786 92.5,127.5C 93.2594,130.406 94.926,132.406 97.5,133.5C 104.414,130.75 111.414,128.25 118.5,126C 119.973,125.29 120.64,124.124 120.5,122.5C 121.167,124.167 121.833,125.833 122.5,127.5C 123.707,132.414 124.374,137.414 124.5,142.5C 115.613,143.908 106.613,145.408 97.5,147C 91.9512,149.946 92.2846,151.779 98.5,152.5C 97.962,154.117 97.6287,155.784 97.5,157.5C 96.6274,161.768 96.2941,166.102 96.5,170.5C 96.4431,171.609 96.1098,172.609 95.5,173.5C 93.7839,173.371 92.1172,173.038 90.5,172.5C 93.2385,159.822 93.0718,147.155 90,134.5C 87.4542,127.025 84.6209,119.692 81.5,112.5C 83.0009,111.248 84.6675,110.248 86.5,109.5 Z"/></g>
<g><path style="opacity:1" fill="#cee2e8" d="M 298.5,117.5 C 298.167,117.5 297.833,117.5 297.5,117.5C 296.265,117.279 295.265,116.612 294.5,115.5C 279.033,119.218 263.533,122.885 248,126.5C 245.6,126.198 243.434,125.532 241.5,124.5C 244.343,123.229 247.343,122.396 250.5,122C 251.406,120.301 251.739,118.467 251.5,116.5C 224.902,121.341 198.569,127.008 172.5,133.5C 171.698,134.952 171.198,136.618 171,138.5C 170.517,137.552 170.351,136.552 170.5,135.5C 160.845,137.585 151.178,139.751 141.5,142C 139.714,142.785 138.214,143.951 137,145.5C 136.802,143.618 136.302,141.952 135.5,140.5C 135.5,140.167 135.5,139.833 135.5,139.5C 141.207,136.212 147.04,133.212 153,130.5C 166.783,130.339 180.283,127.839 193.5,123C 211.263,120.982 228.596,117.315 245.5,112C 251.432,111.479 257.099,111.646 262.5,112.5C 261.631,114.717 261.298,117.05 261.5,119.5C 266.041,118.572 270.541,117.572 275,116.5C 275.72,114.888 275.554,113.388 274.5,112C 271.779,111.398 269.113,111.565 266.5,112.5C 267.953,111.175 267.619,110.342 265.5,110C 267.68,109.581 269.846,109.748 272,110.5C 280.482,107.084 289.315,105.418 298.5,105.5C 298.5,109.5 298.5,113.5 298.5,117.5 Z"/></g>
<g><path style="opacity:1" fill="#5fa5c3" d="M 262.5,112.5 C 263.833,112.5 265.167,112.5 266.5,112.5C 269.113,111.565 271.779,111.398 274.5,112C 275.554,113.388 275.72,114.888 275,116.5C 270.541,117.572 266.041,118.572 261.5,119.5C 261.298,117.05 261.631,114.717 262.5,112.5 Z"/></g>
<g><path style="opacity:1" fill="#417896" d="M 303.5,99.5 C 304.388,102.054 304.721,104.721 304.5,107.5C 304.774,112.263 304.441,116.93 303.5,121.5C 301.955,120.77 301.122,119.437 301,117.5C 300.79,119.058 300.29,120.391 299.5,121.5C 299.5,120.5 299.5,119.5 299.5,118.5C 299.5,117.5 299.5,116.5 299.5,115.5C 300.327,110.349 300.827,105.016 301,99.5C 301.333,100.833 301.667,102.167 302,103.5C 302.21,101.942 302.71,100.609 303.5,99.5 Z"/></g>
<g><path style="opacity:1" fill="#481e11" d="M 343.5,112.5 C 344.139,113.097 344.472,113.93 344.5,115C 344.088,118.027 343.421,120.86 342.5,123.5C 330.086,126.728 317.586,129.728 305,132.5C 303.251,132.252 302.418,131.252 302.5,129.5C 302.216,127.585 302.549,125.919 303.5,124.5C 314.554,121.984 325.554,119.151 336.5,116C 338.81,115.503 341.143,115.337 343.5,115.5C 343.5,114.5 343.5,113.5 343.5,112.5 Z"/></g>
<g><path style="opacity:1" fill="#6e3b23" d="M 13.5,101.5 C 13.3433,102.873 13.51,104.207 14,105.5C 14.9506,105.884 15.7839,106.217 16.5,106.5C 11.9103,116.043 10.5769,126.043 12.5,136.5C 10.0885,136.863 8.58854,135.863 8,133.5C 7.0208,126.226 7.85413,119.226 10.5,112.5C 11.2248,108.769 12.2248,105.102 13.5,101.5 Z"/></g>
<g><path style="opacity:1" fill="#b06231" d="M 112.5,105.5 C 113.401,106.29 114.068,107.29 114.5,108.5C 93.1007,118.001 94.1007,120.001 117.5,114.5C 118.674,115.514 119.34,116.847 119.5,118.5C 110.982,119.889 102.316,121.222 93.5,122.5C 92.2867,122.253 91.62,121.586 91.5,120.5C 98.4285,115.221 105.429,110.221 112.5,105.5 Z"/></g>
<g><path style="opacity:1" fill="#bfd8e0" d="M 297.5,117.5 C 275.55,124.659 252.883,129.493 229.5,132C 208.21,137.63 186.71,141.796 165,144.5C 164.439,143.978 163.772,143.645 163,143.5C 157.934,145.116 152.768,146.283 147.5,147C 144.381,150.221 140.714,152.388 136.5,153.5C 136.768,155.099 136.434,156.432 135.5,157.5C 135.5,156.833 135.5,156.167 135.5,155.5C 135.5,150.5 135.5,145.5 135.5,140.5C 136.302,141.952 136.802,143.618 137,145.5C 138.214,143.951 139.714,142.785 141.5,142C 151.178,139.751 160.845,137.585 170.5,135.5C 170.351,136.552 170.517,137.552 171,138.5C 171.198,136.618 171.698,134.952 172.5,133.5C 172.5,135.167 172.5,136.833 172.5,138.5C 195.594,134.348 218.594,129.681 241.5,124.5C 243.434,125.532 245.6,126.198 248,126.5C 263.533,122.885 279.033,119.218 294.5,115.5C 295.265,116.612 296.265,117.279 297.5,117.5 Z"/></g>
<g><path style="opacity:1" fill="#d9e9ee" d="M 298.5,95.5 C 299.491,101.979 299.824,108.646 299.5,115.5C 299.5,116.5 299.5,117.5 299.5,118.5C 298.833,118.5 298.5,118.167 298.5,117.5C 298.5,113.5 298.5,109.5 298.5,105.5C 289.315,105.418 280.482,107.084 272,110.5C 269.846,109.748 267.68,109.581 265.5,110C 267.619,110.342 267.953,111.175 266.5,112.5C 265.167,112.5 263.833,112.5 262.5,112.5C 257.099,111.646 251.432,111.479 245.5,112C 228.596,117.315 211.263,120.982 193.5,123C 180.283,127.839 166.783,130.339 153,130.5C 147.04,133.212 141.207,136.212 135.5,139.5C 135.156,135.106 134.49,130.772 133.5,126.5C 133.5,126.167 133.5,125.833 133.5,125.5C 174.41,118.194 215.41,111.027 256.5,104C 269.572,99.599 282.738,96.7657 296,95.5C 297.044,96.6226 297.71,97.9559 298,99.5C 298.49,98.2068 298.657,96.8734 298.5,95.5 Z"/></g>
<g><path style="opacity:1" fill="#63a6c1" d="M 241.5,124.5 C 218.594,129.681 195.594,134.348 172.5,138.5C 172.5,136.833 172.5,135.167 172.5,133.5C 198.569,127.008 224.902,121.341 251.5,116.5C 251.739,118.467 251.406,120.301 250.5,122C 247.343,122.396 244.343,123.229 241.5,124.5 Z"/></g>
<g><path style="opacity:1" fill="#afceda" d="M 297.5,117.5 C 297.833,117.5 298.167,117.5 298.5,117.5C 298.5,118.167 298.833,118.5 299.5,118.5C 299.5,119.5 299.5,120.5 299.5,121.5C 298.99,124.539 298.323,127.539 297.5,130.5C 296.778,130.082 296.278,129.416 296,128.5C 294.243,129.371 292.243,129.371 290,128.5C 273.562,131.735 257.062,134.568 240.5,137C 237.007,138.791 233.341,140.124 229.5,141C 217.451,142.063 205.784,144.729 194.5,149C 175.538,151.359 156.871,155.026 138.5,160C 137.299,160.903 136.465,162.069 136,163.5C 135.505,161.527 135.338,159.527 135.5,157.5C 136.434,156.432 136.768,155.099 136.5,153.5C 140.714,152.388 144.381,150.221 147.5,147C 152.768,146.283 157.934,145.116 163,143.5C 163.772,143.645 164.439,143.978 165,144.5C 186.71,141.796 208.21,137.63 229.5,132C 252.883,129.493 275.55,124.659 297.5,117.5 Z"/></g>
<g><path style="opacity:1" fill="#ae6030" d="M 120.5,120.5 C 120.5,121.167 120.5,121.833 120.5,122.5C 120.64,124.124 119.973,125.29 118.5,126C 111.414,128.25 104.414,130.75 97.5,133.5C 94.926,132.406 93.2594,130.406 92.5,127.5C 101.661,124.786 110.994,122.452 120.5,120.5 Z"/></g>
<g><path style="opacity:1" fill="#35150d" d="M 342.5,123.5 C 342.274,127.407 341.274,131.074 339.5,134.5C 327.033,136.861 314.699,139.861 302.5,143.5C 301.09,143.132 300.09,142.299 299.5,141C 300.337,139.989 300.67,138.822 300.5,137.5C 300.294,134.505 300.96,131.838 302.5,129.5C 302.418,131.252 303.251,132.252 305,132.5C 317.586,129.728 330.086,126.728 342.5,123.5 Z"/></g>
<g><path style="opacity:1" fill="#358ab2" d="M 133.5,126.5 C 134.49,130.772 135.156,135.106 135.5,139.5C 135.5,139.833 135.5,140.167 135.5,140.5C 135.5,145.5 135.5,150.5 135.5,155.5C 135.167,155.5 134.833,155.5 134.5,155.5C 133.063,150.862 132.063,146.195 131.5,141.5C 131.562,136.924 130.895,132.591 129.5,128.5C 129.5,127.833 129.5,127.167 129.5,126.5C 130.833,125.167 132.167,125.167 133.5,126.5 Z"/></g>
<g><path style="opacity:1" fill="#471d11" d="M 123.5,111.5 C 126.262,116.105 128.262,121.105 129.5,126.5C 129.5,127.167 129.5,127.833 129.5,128.5C 129.586,132.857 129.92,137.19 130.5,141.5C 128.621,142.341 126.621,142.675 124.5,142.5C 124.374,137.414 123.707,132.414 122.5,127.5C 123.347,125.971 124.014,124.304 124.5,122.5C 123.754,118.868 123.421,115.202 123.5,111.5 Z"/></g>
<g><path style="opacity:1" fill="#458bad" d="M 275.5,137.5 C 275.5,139.167 275.5,140.833 275.5,142.5C 270.894,143.755 266.228,144.755 261.5,145.5C 261.5,144.5 261.5,143.5 261.5,142.5C 261.577,141.25 262.244,140.417 263.5,140C 267.378,138.53 271.378,137.697 275.5,137.5 Z"/></g>
<g><path style="opacity:1" fill="#1b0a0a" d="M 339.5,134.5 C 338.058,135.82 337.392,137.486 337.5,139.5C 336.844,138.722 336.011,138.056 335,137.5C 322.124,140.428 309.291,143.428 296.5,146.5C 297.075,143.088 298.408,140.088 300.5,137.5C 300.67,138.822 300.337,139.989 299.5,141C 300.09,142.299 301.09,143.132 302.5,143.5C 314.699,139.861 327.033,136.861 339.5,134.5 Z"/></g>
<g><path style="opacity:1" fill="#34160e" d="M 337.5,139.5 C 337.818,142.481 336.818,144.815 334.5,146.5C 321.329,149.084 308.163,151.75 295,154.5C 293.93,154.472 293.097,154.139 292.5,153.5C 292.557,152.391 292.89,151.391 293.5,150.5C 294.5,149.167 295.5,147.833 296.5,146.5C 309.291,143.428 322.124,140.428 335,137.5C 336.011,138.056 336.844,138.722 337.5,139.5 Z"/></g>
<g><path style="opacity:1" fill="#1f5a7d" d="M 303.5,121.5 C 303.5,122.5 303.5,123.5 303.5,124.5C 302.549,125.919 302.216,127.585 302.5,129.5C 300.96,131.838 300.294,134.505 300.5,137.5C 298.408,140.088 297.075,143.088 296.5,146.5C 295.5,147.833 294.5,149.167 293.5,150.5C 293.223,148.425 292.89,146.425 292.5,144.5C 293.784,141.598 294.784,138.598 295.5,135.5C 296.537,134.07 297.204,132.403 297.5,130.5C 298.323,127.539 298.99,124.539 299.5,121.5C 300.29,120.391 300.79,119.058 301,117.5C 301.122,119.437 301.955,120.77 303.5,121.5 Z"/></g>
<g><path style="opacity:1" fill="#ebaf6f" d="M 79.5,109.5 C 79.9321,110.71 80.5987,111.71 81.5,112.5C 84.6209,119.692 87.4542,127.025 90,134.5C 93.0718,147.155 93.2385,159.822 90.5,172.5C 90.5,173.167 90.5,173.833 90.5,174.5C 88.2403,185.188 83.2403,194.355 75.5,202C 72.7568,204.038 69.7568,205.538 66.5,206.5C 63.3862,205.987 60.3862,205.154 57.5,204C 59.3817,203.802 61.0484,203.302 62.5,202.5C 70.7176,201.12 76.8842,196.787 81,189.5C 95.0353,155.347 89.2019,125.18 63.5,99C 40.105,84.9401 24.605,91.1068 17,117.5C 13.6532,135.749 15.4865,153.416 22.5,170.5C 22.7947,172.735 22.4614,174.735 21.5,176.5C 16.6095,166.648 13.6095,156.148 12.5,145C 12.6004,142.698 13.267,140.698 14.5,139C 13.9341,138.005 13.2674,137.172 12.5,136.5C 10.5769,126.043 11.9103,116.043 16.5,106.5C 18.1035,104.02 19.6035,101.354 21,98.5C 26.1719,89.7469 33.8385,85.0802 44,84.5C 59.6148,87.5499 71.4481,95.8832 79.5,109.5 Z"/></g>
<g><path style="opacity:1" fill="#220905" d="M 130.5,141.5 C 130.5,142.833 130.5,144.167 130.5,145.5C 127.933,145.721 125.599,146.388 123.5,147.5C 115.107,148.759 106.774,150.426 98.5,152.5C 92.2846,151.779 91.9512,149.946 97.5,147C 106.613,145.408 115.613,143.908 124.5,142.5C 126.621,142.675 128.621,142.341 130.5,141.5 Z"/></g>
<g><path style="opacity:1" fill="#68311a" d="M 123.5,147.5 C 124.239,147.369 124.906,147.536 125.5,148C 124.556,150.719 124.223,153.552 124.5,156.5C 117.939,158.056 111.272,159.056 104.5,159.5C 101.887,159.357 99.5533,158.69 97.5,157.5C 97.6287,155.784 97.962,154.117 98.5,152.5C 106.774,150.426 115.107,148.759 123.5,147.5 Z"/></g>
<g><path style="opacity:1" fill="#2f110c" d="M 129.5,128.5 C 130.895,132.591 131.562,136.924 131.5,141.5C 131.5,143.833 131.5,146.167 131.5,148.5C 129.258,154.86 127.425,161.527 126,168.5C 124.989,169.337 123.822,169.67 122.5,169.5C 123.15,167.565 123.483,165.565 123.5,163.5C 124.219,161.236 124.552,158.903 124.5,156.5C 124.223,153.552 124.556,150.719 125.5,148C 124.906,147.536 124.239,147.369 123.5,147.5C 125.599,146.388 127.933,145.721 130.5,145.5C 130.5,144.167 130.5,142.833 130.5,141.5C 129.92,137.19 129.586,132.857 129.5,128.5 Z"/></g>
<g><path style="opacity:1" fill="#9fc3d3" d="M 297.5,130.5 C 297.204,132.403 296.537,134.07 295.5,135.5C 294.178,135.33 293.011,135.663 292,136.5C 291.667,135.833 291.333,135.167 291,134.5C 286.131,135.101 281.464,136.435 277,138.5C 276.617,137.944 276.117,137.611 275.5,137.5C 271.378,137.697 267.378,138.53 263.5,140C 262.244,140.417 261.577,141.25 261.5,142.5C 260.391,142.443 259.391,142.11 258.5,141.5C 231.412,146.884 204.412,152.718 177.5,159C 176.244,159.417 175.577,160.25 175.5,161.5C 171.972,159.635 169.638,160.635 168.5,164.5C 169.714,166.069 171.381,166.902 173.5,167C 168.882,166.217 164.382,165.717 160,165.5C 151.287,167.811 142.453,169.811 133.5,171.5C 133.5,170.5 133.5,169.5 133.5,168.5C 134.2,164.202 134.533,159.869 134.5,155.5C 134.833,155.5 135.167,155.5 135.5,155.5C 135.5,156.167 135.5,156.833 135.5,157.5C 135.338,159.527 135.505,161.527 136,163.5C 136.465,162.069 137.299,160.903 138.5,160C 156.871,155.026 175.538,151.359 194.5,149C 205.784,144.729 217.451,142.063 229.5,141C 233.341,140.124 237.007,138.791 240.5,137C 257.062,134.568 273.562,131.735 290,128.5C 292.243,129.371 294.243,129.371 296,128.5C 296.278,129.416 296.778,130.082 297.5,130.5 Z"/></g>
<g><path style="opacity:1" fill="#478cac" d="M 258.5,141.5 C 258.131,143.441 257.464,145.275 256.5,147C 229.161,153.699 201.827,159.532 174.5,164.5C 175.127,163.583 175.461,162.583 175.5,161.5C 175.577,160.25 176.244,159.417 177.5,159C 204.412,152.718 231.412,146.884 258.5,141.5 Z"/></g>
<g><path style="opacity:1" fill="#83afc4" d="M 295.5,135.5 C 294.784,138.598 293.784,141.598 292.5,144.5C 290.735,147.709 288.735,150.709 286.5,153.5C 284.805,153.76 282.972,153.427 281,152.5C 267.617,155.317 254.117,157.483 240.5,159C 203.119,168.522 165.785,176.689 128.5,183.5C 129.997,178.341 131.664,173.341 133.5,168.5C 133.5,169.5 133.5,170.5 133.5,171.5C 142.453,169.811 151.287,167.811 160,165.5C 164.382,165.717 168.882,166.217 173.5,167C 171.381,166.902 169.714,166.069 168.5,164.5C 169.638,160.635 171.972,159.635 175.5,161.5C 175.461,162.583 175.127,163.583 174.5,164.5C 201.827,159.532 229.161,153.699 256.5,147C 257.464,145.275 258.131,143.441 258.5,141.5C 259.391,142.11 260.391,142.443 261.5,142.5C 261.5,143.5 261.5,144.5 261.5,145.5C 266.228,144.755 270.894,143.755 275.5,142.5C 275.5,140.833 275.5,139.167 275.5,137.5C 276.117,137.611 276.617,137.944 277,138.5C 281.464,136.435 286.131,135.101 291,134.5C 291.333,135.167 291.667,135.833 292,136.5C 293.011,135.663 294.178,135.33 295.5,135.5 Z"/></g>
<g><path style="opacity:1" fill="#170605" d="M 334.5,146.5 C 333.055,148.063 331.389,149.396 329.5,150.5C 316.145,153.141 302.978,156.475 290,160.5C 289.617,159.944 289.117,159.611 288.5,159.5C 289.34,157.147 290.674,155.147 292.5,153.5C 293.097,154.139 293.93,154.472 295,154.5C 308.163,151.75 321.329,149.084 334.5,146.5 Z"/></g>
<g><path style="opacity:1" fill="#71a0b9" d="M 286.5,153.5 C 284.984,156.533 282.984,159.2 280.5,161.5C 278.176,161.995 276.009,161.995 274,161.5C 269.91,161.999 266.077,162.999 262.5,164.5C 228.886,172.153 195.22,179.653 161.5,187C 159.676,187.66 158.343,188.827 157.5,190.5C 156.033,190.106 154.533,189.773 153,189.5C 141.819,191.57 130.986,194.736 120.5,199C 118.559,201.454 116.225,203.287 113.5,204.5C 117.599,200.737 120.933,196.404 123.5,191.5C 125.167,188.833 126.833,186.167 128.5,183.5C 165.785,176.689 203.119,168.522 240.5,159C 254.117,157.483 267.617,155.317 281,152.5C 282.972,153.427 284.805,153.76 286.5,153.5 Z"/></g>
<g><path style="opacity:1" fill="#2a100a" d="M 329.5,150.5 C 330.109,153.878 328.776,155.878 325.5,156.5C 325.265,155.903 324.765,155.57 324,155.5C 311.495,159.779 298.661,162.612 285.5,164C 286.252,163.329 286.586,162.496 286.5,161.5C 286.833,160.5 287.5,159.833 288.5,159.5C 289.117,159.611 289.617,159.944 290,160.5C 302.978,156.475 316.145,153.141 329.5,150.5 Z"/></g>
<g><path style="opacity:1" fill="#522515" d="M 124.5,156.5 C 124.552,158.903 124.219,161.236 123.5,163.5C 114.097,164.457 105.097,166.791 96.5,170.5C 96.2941,166.102 96.6274,161.768 97.5,157.5C 99.5533,158.69 101.887,159.357 104.5,159.5C 111.272,159.056 117.939,158.056 124.5,156.5 Z"/></g>
<g><path style="opacity:0.994" fill="#170505" d="M 325.5,156.5 C 322.616,160.549 318.949,163.716 314.5,166C 300.388,170.279 286.055,173.445 271.5,175.5C 270.893,175.376 270.56,175.043 270.5,174.5C 276.463,170.864 281.796,166.53 286.5,161.5C 286.586,162.496 286.252,163.329 285.5,164C 298.661,162.612 311.495,159.779 324,155.5C 324.765,155.57 325.265,155.903 325.5,156.5 Z"/></g>
<g><path style="opacity:1" fill="#3f1b11" d="M 123.5,163.5 C 123.483,165.565 123.15,167.565 122.5,169.5C 121.833,171.5 121.167,173.5 120.5,175.5C 118.692,176.907 116.692,178.074 114.5,179C 107.553,180.989 100.553,182.489 93.5,183.5C 94.1495,181.565 94.4828,179.565 94.5,177.5C 95.2216,177.918 95.7216,178.584 96,179.5C 102.552,177.736 109.052,175.736 115.5,173.5C 108.853,172.608 102.186,172.608 95.5,173.5C 96.1098,172.609 96.4431,171.609 96.5,170.5C 105.097,166.791 114.097,164.457 123.5,163.5 Z"/></g>
<g><path style="opacity:1" fill="#1f5f83" d="M 262.5,164.5 C 263.791,165.542 263.791,166.708 262.5,168C 228.102,176.725 193.602,184.891 159,192.5C 157.97,192.164 157.47,191.497 157.5,190.5C 158.343,188.827 159.676,187.66 161.5,187C 195.22,179.653 228.886,172.153 262.5,164.5 Z"/></g>
<g><path style="opacity:1" fill="#160302" d="M 90.5,172.5 C 92.1172,173.038 93.7839,173.371 95.5,173.5C 102.186,172.608 108.853,172.608 115.5,173.5C 109.052,175.736 102.552,177.736 96,179.5C 95.7216,178.584 95.2216,177.918 94.5,177.5C 93.1667,176.5 91.8333,175.5 90.5,174.5C 90.5,173.833 90.5,173.167 90.5,172.5 Z"/></g>
<g><path style="opacity:1" fill="#15577b" d="M 131.5,141.5 C 132.063,146.195 133.063,150.862 134.5,155.5C 134.533,159.869 134.2,164.202 133.5,168.5C 131.664,173.341 129.997,178.341 128.5,183.5C 126.833,186.167 125.167,188.833 123.5,191.5C 124.23,189.446 124.23,187.112 123.5,184.5C 128.44,173.012 131.106,161.012 131.5,148.5C 131.5,146.167 131.5,143.833 131.5,141.5 Z"/></g>
<g><path style="opacity:1" fill="#140505" d="M 131.5,148.5 C 131.106,161.012 128.44,173.012 123.5,184.5C 118.834,193.008 112.501,200.175 104.5,206C 94.4729,209.374 84.4729,212.207 74.5,214.5C 71.8333,214.5 69.1667,214.5 66.5,214.5C 66.5,213.167 66.5,211.833 66.5,210.5C 68.5,210.167 70.5,209.833 72.5,209.5C 75.4225,210.75 78.0891,210.083 80.5,207.5C 82.1713,205.49 82.838,203.157 82.5,200.5C 83.5,200.5 84.5,200.5 85.5,200.5C 94.6225,198.908 103.622,196.742 112.5,194C 113.337,192.989 113.67,191.822 113.5,190.5C 112.127,190.657 110.793,190.49 109.5,190C 111.664,189.086 113.664,187.919 115.5,186.5C 114.833,186.167 114.167,185.833 113.5,185.5C 105.531,187.383 97.5313,189.05 89.5,190.5C 88.0857,188.402 88.7524,187.402 91.5,187.5C 100.81,187.138 109.81,185.305 118.5,182C 120.25,180.246 120.917,178.079 120.5,175.5C 121.167,173.5 121.833,171.5 122.5,169.5C 123.822,169.67 124.989,169.337 126,168.5C 127.425,161.527 129.258,154.86 131.5,148.5 Z"/></g>
<g><path style="opacity:1" fill="#2d110b" d="M 120.5,175.5 C 120.917,178.079 120.25,180.246 118.5,182C 109.81,185.305 100.81,187.138 91.5,187.5C 91.9887,186.005 92.6554,184.671 93.5,183.5C 100.553,182.489 107.553,180.989 114.5,179C 116.692,178.074 118.692,176.907 120.5,175.5 Z"/></g>
<g><path style="opacity:1" fill="#083d60" d="M 292.5,144.5 C 292.89,146.425 293.223,148.425 293.5,150.5C 292.89,151.391 292.557,152.391 292.5,153.5C 290.674,155.147 289.34,157.147 288.5,159.5C 287.5,159.833 286.833,160.5 286.5,161.5C 281.796,166.53 276.463,170.864 270.5,174.5C 266.672,176.579 262.672,178.412 258.5,180C 263.406,182.942 268.072,186.109 272.5,189.5C 271.5,189.833 270.833,190.5 270.5,191.5C 268.716,191.107 267.05,190.441 265.5,189.5C 264.71,188.599 263.71,187.932 262.5,187.5C 261.486,186.326 260.153,185.66 258.5,185.5C 257.481,183.899 255.981,182.899 254,182.5C 198.073,195.203 141.906,206.703 85.5,217C 86.0442,217.717 86.7109,218.217 87.5,218.5C 86.8333,219.833 86.1667,221.167 85.5,222.5C 81.938,219.566 78.2714,216.899 74.5,214.5C 84.4729,212.207 94.4729,209.374 104.5,206C 112.501,200.175 118.834,193.008 123.5,184.5C 124.23,187.112 124.23,189.446 123.5,191.5C 120.933,196.404 117.599,200.737 113.5,204.5C 110.374,205.96 110.207,206.96 113,207.5C 162.297,197.48 211.464,186.98 260.5,176C 268.468,172.851 275.135,168.018 280.5,161.5C 282.984,159.2 284.984,156.533 286.5,153.5C 288.735,150.709 290.735,147.709 292.5,144.5 Z"/></g>
<g><path style="opacity:1" fill="#2b110c" d="M 85.5,200.5 C 88.1912,197.77 89.5245,194.436 89.5,190.5C 97.5313,189.05 105.531,187.383 113.5,185.5C 114.167,185.833 114.833,186.167 115.5,186.5C 113.664,187.919 111.664,189.086 109.5,190C 110.793,190.49 112.127,190.657 113.5,190.5C 113.67,191.822 113.337,192.989 112.5,194C 103.622,196.742 94.6225,198.908 85.5,200.5 Z"/></g>
<g><path style="opacity:1" fill="#834324" d="M 90.5,174.5 C 91.8333,175.5 93.1667,176.5 94.5,177.5C 94.4828,179.565 94.1495,181.565 93.5,183.5C 92.6554,184.671 91.9887,186.005 91.5,187.5C 88.7524,187.402 88.0857,188.402 89.5,190.5C 89.5245,194.436 88.1912,197.77 85.5,200.5C 84.5,200.5 83.5,200.5 82.5,200.5C 82.838,203.157 82.1713,205.49 80.5,207.5C 78.0891,210.083 75.4225,210.75 72.5,209.5C 70.7857,208.262 68.7857,207.595 66.5,207.5C 66.5,207.167 66.5,206.833 66.5,206.5C 69.7568,205.538 72.7568,204.038 75.5,202C 83.2403,194.355 88.2403,185.188 90.5,174.5 Z"/></g>
<g><path style="opacity:1" fill="#5086a2" d="M 280.5,161.5 C 275.135,168.018 268.468,172.851 260.5,176C 211.464,186.98 162.297,197.48 113,207.5C 110.207,206.96 110.374,205.96 113.5,204.5C 116.225,203.287 118.559,201.454 120.5,199C 130.986,194.736 141.819,191.57 153,189.5C 154.533,189.773 156.033,190.106 157.5,190.5C 157.47,191.497 157.97,192.164 159,192.5C 193.602,184.891 228.102,176.725 262.5,168C 263.791,166.708 263.791,165.542 262.5,164.5C 266.077,162.999 269.91,161.999 274,161.5C 276.009,161.995 278.176,161.995 280.5,161.5 Z"/></g>
<g><path style="opacity:1" fill="#e09f62" d="M 22.5,170.5 C 27.0787,181.146 33.7453,190.313 42.5,198C 48.5712,202.01 55.2379,203.51 62.5,202.5C 61.0484,203.302 59.3817,203.802 57.5,204C 60.3862,205.154 63.3862,205.987 66.5,206.5C 66.5,206.833 66.5,207.167 66.5,207.5C 56.4336,209.72 47.4336,207.554 39.5,201C 31.7127,194.061 25.7127,185.894 21.5,176.5C 22.4614,174.735 22.7947,172.735 22.5,170.5 Z"/></g>
<g><path style="opacity:1" fill="#e7f2f3" d="M 276.5,198.5 C 277.833,198.5 279.167,198.5 280.5,198.5C 284.335,200.25 288.001,202.25 291.5,204.5C 289.54,205.138 287.707,205.138 286,204.5C 285.632,205.91 284.799,206.91 283.5,207.5C 278.703,206.014 274.037,206.181 269.5,208C 272.036,208.186 274.369,208.686 276.5,209.5C 270.201,209.411 264.201,210.578 258.5,213C 259.381,213.708 260.047,214.542 260.5,215.5C 259.338,216.678 258.338,217.845 257.5,219C 255.892,219.658 254.725,219.158 254,217.5C 253.617,218.056 253.117,218.389 252.5,218.5C 252.047,217.542 251.381,216.708 250.5,216C 239.984,216.208 229.651,217.874 219.5,221C 218.044,221.423 217.544,222.256 218,223.5C 219.356,224.38 220.856,224.714 222.5,224.5C 220.401,225.612 218.067,226.279 215.5,226.5C 215.423,225.25 214.756,224.417 213.5,224C 201.229,224.732 189.229,227.066 177.5,231C 178.381,231.708 179.047,232.542 179.5,233.5C 178.596,234.209 178.263,235.209 178.5,236.5C 171.452,236.674 164.785,238.341 158.5,241.5C 149.68,242.77 141.013,244.104 132.5,245.5C 126.217,243.025 120.217,240.025 114.5,236.5C 114.804,235.85 115.137,235.183 115.5,234.5C 134.629,232.982 153.629,230.482 172.5,227C 185.431,222.346 198.764,219.346 212.5,218C 231.36,213.63 250.026,208.63 268.5,203C 271.391,201.726 274.058,200.226 276.5,198.5 Z"/></g>
<g><path style="opacity:1" fill="#c37c44" d="M 62.5,202.5 C 55.2379,203.51 48.5712,202.01 42.5,198C 33.7453,190.313 27.0787,181.146 22.5,170.5C 15.4865,153.416 13.6532,135.749 17,117.5C 24.605,91.1068 40.105,84.9401 63.5,99C 89.2019,125.18 95.0353,155.347 81,189.5C 76.8842,196.787 70.7176,201.12 62.5,202.5 Z"/></g>
<g><path style="opacity:1" fill="#b76c36" d="M 80.5,151.5 C 81.9606,165.375 78.7939,178.042 71,189.5C 64.1652,194.849 56.6652,196.515 48.5,194.5C 55.2461,193.356 61.9127,191.523 68.5,189C 74.6559,182.043 77.9893,173.876 78.5,164.5C 79.1667,160.167 79.8333,155.833 80.5,151.5 Z"/></g>
<g><path style="opacity:1" fill="#e7aa68" d="M 41.5,194.5 C 43.588,194.135 45.9213,194.135 48.5,194.5C 56.6652,196.515 64.1652,194.849 71,189.5C 78.7939,178.042 81.9606,165.375 80.5,151.5C 79.0426,130.752 69.7093,114.752 52.5,103.5C 40.1963,98.2361 31.0296,101.569 25,113.5C 23.6405,118.466 22.4739,123.466 21.5,128.5C 20.4928,131.322 19.6595,134.322 19,137.5C 18.8238,133.312 18.3238,129.312 17.5,125.5C 18.4262,112.8 24.0929,102.967 34.5,96C 45.0677,92.8205 54.7344,94.4872 63.5,101C 88.3316,127.505 93.165,157.338 78,190.5C 71.1477,198.96 62.3144,202.126 51.5,200C 47.6536,198.914 44.3203,197.081 41.5,194.5 Z"/></g>
<g><path style="opacity:1" fill="#dd9a5b" d="M 51.5,104.5 C 71.8441,119.202 80.8441,139.202 78.5,164.5C 77.9893,173.876 74.6559,182.043 68.5,189C 61.9127,191.523 55.2461,193.356 48.5,194.5C 45.9213,194.135 43.588,194.135 41.5,194.5C 22.7784,175.339 14.7784,152.339 17.5,125.5C 18.3238,129.312 18.8238,133.312 19,137.5C 19.6595,134.322 20.4928,131.322 21.5,128.5C 20.3785,147.349 24.8785,164.683 35,180.5C 37.8333,183.333 40.6667,186.167 43.5,189C 45.9141,190.885 48.5808,191.552 51.5,191C 44.1591,187.993 38.3258,183.16 34,176.5C 22.9217,157.55 20.255,137.55 26,116.5C 30.8448,104.933 39.3448,100.933 51.5,104.5 Z"/></g>
<g><path style="opacity:1" fill="#c0763d" d="M 65.5,173.5 C 74.3246,153.122 70.9913,134.955 55.5,119C 40.918,112.208 32.0847,116.708 29,132.5C 27.3384,147.521 30.8384,161.188 39.5,173.5C 43.9743,180.493 50.3076,183.659 58.5,183C 60.7538,181.623 62.9205,180.123 65,178.5C 64.3941,181.46 62.5608,183.627 59.5,185C 55.3749,185.854 51.3749,185.52 47.5,184C 38.7989,177.933 32.9655,169.767 30,159.5C 25.3359,145.808 25.3359,132.142 30,118.5C 32.6179,111.543 37.6179,108.209 45,108.5C 49.1359,108.656 52.9692,109.823 56.5,112C 62.7095,116.867 67.3761,122.867 70.5,130C 70.3893,131.722 69.8893,131.888 69,130.5C 64.974,121.931 58.8073,115.431 50.5,111C 42.0723,108.557 35.739,111.057 31.5,118.5C 31.6667,118.833 31.8333,119.167 32,119.5C 39.1395,112.546 46.9728,111.712 55.5,117C 72.3907,133.05 76.224,151.883 67,173.5C 66.31,174.738 65.81,174.738 65.5,173.5 Z"/></g>
<g><path style="opacity:1" fill="#af6532" d="M 52.5,103.5 C 52.5,104.167 52.1667,104.5 51.5,104.5C 39.3448,100.933 30.8448,104.933 26,116.5C 20.255,137.55 22.9217,157.55 34,176.5C 38.3258,183.16 44.1591,187.993 51.5,191C 48.5808,191.552 45.9141,190.885 43.5,189C 40.6667,186.167 37.8333,183.333 35,180.5C 24.8785,164.683 20.3785,147.349 21.5,128.5C 22.4739,123.466 23.6405,118.466 25,113.5C 31.0296,101.569 40.1963,98.2361 52.5,103.5 Z"/></g>
<g><path style="opacity:1" fill="#c77e44" d="M 52.5,103.5 C 69.7093,114.752 79.0426,130.752 80.5,151.5C 79.8333,155.833 79.1667,160.167 78.5,164.5C 80.8441,139.202 71.8441,119.202 51.5,104.5C 52.1667,104.5 52.5,104.167 52.5,103.5 Z"/></g>
<g><path style="opacity:1" fill="#e4a362" d="M 65.5,173.5 C 58.0848,181.29 50.4181,181.457 42.5,174C 41.552,173.517 40.552,173.351 39.5,173.5C 30.8384,161.188 27.3384,147.521 29,132.5C 32.0847,116.708 40.918,112.208 55.5,119C 70.9913,134.955 74.3246,153.122 65.5,173.5 Z"/></g>
<g><path style="opacity:1" fill="#bd723a" d="M 41.5,122.5 C 49.7984,121.735 55.965,125.068 60,132.5C 65.7892,143.134 65.9559,153.8 60.5,164.5C 56.1557,167.793 51.489,168.293 46.5,166C 40.049,160.658 36.2157,153.825 35,145.5C 34.3069,156.282 38.1403,165.115 46.5,172C 54.5785,175.6 60.4118,173.433 64,165.5C 62.4539,174.042 57.2873,177.208 48.5,175C 40.6104,170.407 35.7771,163.574 34,154.5C 32.6725,149.543 32.0058,144.543 32,139.5C 32.3333,140.833 32.6667,142.167 33,143.5C 32.7086,135.129 35.542,128.129 41.5,122.5 Z"/></g>
<g><path style="opacity:1" fill="#e29f5e" d="M 42.5,124.5 C 45.9783,124.184 49.3117,124.684 52.5,126C 63.384,137.315 65.384,149.982 58.5,164C 52.2533,167.95 47.0867,166.783 43,160.5C 38.7518,153.422 36.7518,145.755 37,137.5C 36.6667,139.5 36.3333,141.5 36,143.5C 34.1293,135.607 36.2959,129.274 42.5,124.5 Z"/></g>
<g><path style="opacity:1" fill="#c2783f" d="M 44.5,129.5 C 51.6205,129.445 56.4538,132.779 59,139.5C 60.4924,144.411 60.8257,149.411 60,154.5C 58.1177,161.011 53.9511,163.178 47.5,161C 38.3223,152.484 36.489,142.651 42,131.5C 42.9947,130.934 43.828,130.267 44.5,129.5 Z"/></g>
<g><path style="opacity:1" fill="#e19c5a" d="M 43.5,133.5 C 50.7075,132.521 55.5408,135.521 58,142.5C 58.6667,146.5 58.6667,150.5 58,154.5C 55.9876,159.903 52.4876,161.403 47.5,159C 40.0892,151.346 38.7559,142.846 43.5,133.5 Z"/></g>
<g><path style="opacity:1" fill="#a85e2d" d="M 45.5,137.5 C 49.6826,136.846 52.516,138.512 54,142.5C 54.9777,146.9 54.4777,151.067 52.5,155C 47.7044,154.9 44.5377,152.4 43,147.5C 42.0239,143.673 42.8572,140.34 45.5,137.5 Z"/></g>
<g><path style="opacity:1" fill="#559bba" d="M 258.5,199.5 C 250.083,200.903 241.75,202.737 233.5,205C 230.739,205.722 228.073,205.555 225.5,204.5C 225.756,202.224 227.09,201.057 229.5,201C 237.642,199.09 245.808,197.256 254,195.5C 256.616,195.617 258.116,196.95 258.5,199.5 Z"/></g>
<g><path style="opacity:1" fill="#cadee5" d="M 273.5,194.5 C 276.004,195.584 278.337,196.917 280.5,198.5C 279.167,198.5 277.833,198.5 276.5,198.5C 248.29,206.621 219.623,212.788 190.5,217C 180.545,219.822 170.545,222.322 160.5,224.5C 158.514,224.213 156.68,223.547 155,222.5C 144.334,224.791 133.834,227.624 123.5,231C 117.593,231.372 111.926,231.538 106.5,231.5C 104.246,230.876 102.579,229.543 101.5,227.5C 118.024,225.614 134.357,222.947 150.5,219.5C 153.137,221.427 156.137,221.927 159.5,221C 178.854,216.796 198.188,212.462 217.5,208C 218.056,207.617 218.389,207.117 218.5,206.5C 220.657,205.593 222.99,204.927 225.5,204.5C 228.073,205.555 230.739,205.722 233.5,205C 241.75,202.737 250.083,200.903 258.5,199.5C 263.695,198.435 268.695,196.768 273.5,194.5 Z"/></g>
<g><path style="opacity:1" fill="#326484" d="M 258.5,185.5 C 213.485,195.115 168.485,204.949 123.5,215C 111.317,216.993 99.3175,218.16 87.5,218.5C 86.7109,218.217 86.0442,217.717 85.5,217C 141.906,206.703 198.073,195.203 254,182.5C 255.981,182.899 257.481,183.899 258.5,185.5 Z"/></g>
<g><path style="opacity:1" fill="#6492ac" d="M 182.5,205.5 C 173.74,207.886 164.74,209.719 155.5,211C 149.007,213.385 142.341,215.385 135.5,217C 121.494,218.128 107.827,220.295 94.5,223.5C 93.1667,222.833 92.1667,221.833 91.5,220.5C 100.522,219.995 109.522,219.161 118.5,218C 139.588,212.561 160.921,208.395 182.5,205.5 Z"/></g>
<g><path style="opacity:1" fill="#569bb9" d="M 218.5,206.5 C 218.389,207.117 218.056,207.617 217.5,208C 198.188,212.462 178.854,216.796 159.5,221C 156.137,221.927 153.137,221.427 150.5,219.5C 151.347,218.034 152.68,217.2 154.5,217C 173.214,213.257 191.88,209.257 210.5,205C 213.498,204.109 216.164,204.609 218.5,206.5 Z"/></g>
<g><path style="opacity:1" fill="#74371e" d="M 12.5,136.5 C 13.2674,137.172 13.9341,138.005 14.5,139C 13.267,140.698 12.6004,142.698 12.5,145C 13.6095,156.148 16.6095,166.648 21.5,176.5C 25.7127,185.894 31.7127,194.061 39.5,201C 47.4336,207.554 56.4336,209.72 66.5,207.5C 68.7857,207.595 70.7857,208.262 72.5,209.5C 70.5,209.833 68.5,210.167 66.5,210.5C 66.5,211.833 66.5,213.167 66.5,214.5C 58.7017,218.034 52.0351,216.534 46.5,210C 37.731,209.064 32.731,204.231 31.5,195.5C 27.8296,195.673 25.3296,194.007 24,190.5C 15.5443,176.767 10.3777,161.934 8.5,146C 8.66667,143.833 8.83333,141.667 9,139.5C 10.7286,139.026 11.8953,138.026 12.5,136.5 Z"/></g>
<g><path style="opacity:1" fill="#82abc0" d="M 262.5,187.5 C 263.71,187.932 264.71,188.599 265.5,189.5C 263.887,191.27 261.887,192.436 259.5,193C 216.976,201.737 174.643,211.07 132.5,221C 122.145,222.667 111.812,224.334 101.5,226C 100.944,226.383 100.611,226.883 100.5,227.5C 98.5,226.167 96.5,224.833 94.5,223.5C 107.827,220.295 121.494,218.128 135.5,217C 142.341,215.385 149.007,213.385 155.5,211C 164.74,209.719 173.74,207.886 182.5,205.5C 197.787,201.683 213.12,198.183 228.5,195C 240.328,194.039 251.661,191.539 262.5,187.5 Z"/></g>
<g><path style="opacity:1" fill="#f9fafb" d="M 291.5,204.5 C 303.113,210.641 314.78,216.808 326.5,223C 327.667,224.167 328.833,225.333 330,226.5C 330.692,227.437 330.525,228.103 329.5,228.5C 280.799,238.34 232.133,248.507 183.5,259C 179.113,259.706 174.78,259.54 170.5,258.5C 157.338,255.336 144.671,251.002 132.5,245.5C 141.013,244.104 149.68,242.77 158.5,241.5C 164.785,238.341 171.452,236.674 178.5,236.5C 178.263,235.209 178.596,234.209 179.5,233.5C 191.628,231.801 203.628,229.468 215.5,226.5C 218.067,226.279 220.401,225.612 222.5,224.5C 232.5,222.594 242.5,220.594 252.5,218.5C 253.117,218.389 253.617,218.056 254,217.5C 254.725,219.158 255.892,219.658 257.5,219C 258.338,217.845 259.338,216.678 260.5,215.5C 266.846,215.446 272.846,214.112 278.5,211.5C 277.757,210.818 277.091,210.151 276.5,209.5C 274.369,208.686 272.036,208.186 269.5,208C 274.037,206.181 278.703,206.014 283.5,207.5C 284.799,206.91 285.632,205.91 286,204.5C 287.707,205.138 289.54,205.138 291.5,204.5 Z"/></g>
<g><path style="opacity:1" fill="#7bbdd5" d="M 276.5,209.5 C 277.091,210.151 277.757,210.818 278.5,211.5C 272.846,214.112 266.846,215.446 260.5,215.5C 260.047,214.542 259.381,213.708 258.5,213C 264.201,210.578 270.201,209.411 276.5,209.5 Z"/></g>
<g><path style="opacity:1" fill="#5094b3" d="M 272.5,189.5 C 291.609,199.437 310.609,209.604 329.5,220C 332.325,222.143 334.325,224.81 335.5,228C 335.252,231.082 333.585,232.582 330.5,232.5C 329.766,231.292 329.433,229.959 329.5,228.5C 330.525,228.103 330.692,227.437 330,226.5C 328.833,225.333 327.667,224.167 326.5,223C 314.78,216.808 303.113,210.641 291.5,204.5C 288.001,202.25 284.335,200.25 280.5,198.5C 278.337,196.917 276.004,195.584 273.5,194.5C 272.306,193.728 271.306,192.728 270.5,191.5C 270.833,190.5 271.5,189.833 272.5,189.5 Z"/></g>
<g><path style="opacity:1" fill="#51819d" d="M 258.5,185.5 C 260.153,185.66 261.486,186.326 262.5,187.5C 251.661,191.539 240.328,194.039 228.5,195C 213.12,198.183 197.787,201.683 182.5,205.5C 160.921,208.395 139.588,212.561 118.5,218C 109.522,219.161 100.522,219.995 91.5,220.5C 89.9382,220.267 88.6049,219.6 87.5,218.5C 99.3175,218.16 111.317,216.993 123.5,215C 168.485,204.949 213.485,195.115 258.5,185.5 Z"/></g>
<g><path style="opacity:1" fill="#9ec0d0" d="M 265.5,189.5 C 267.05,190.441 268.716,191.107 270.5,191.5C 271.306,192.728 272.306,193.728 273.5,194.5C 268.695,196.768 263.695,198.435 258.5,199.5C 258.116,196.95 256.616,195.617 254,195.5C 245.808,197.256 237.642,199.09 229.5,201C 227.09,201.057 225.756,202.224 225.5,204.5C 222.99,204.927 220.657,205.593 218.5,206.5C 216.164,204.609 213.498,204.109 210.5,205C 191.88,209.257 173.214,213.257 154.5,217C 152.68,217.2 151.347,218.034 150.5,219.5C 134.357,222.947 118.024,225.614 101.5,227.5C 101.167,227.5 100.833,227.5 100.5,227.5C 100.611,226.883 100.944,226.383 101.5,226C 111.812,224.334 122.145,222.667 132.5,221C 174.643,211.07 216.976,201.737 259.5,193C 261.887,192.436 263.887,191.27 265.5,189.5 Z"/></g>
<g><path style="opacity:1" fill="#7ebdd3" d="M 252.5,218.5 C 242.5,220.594 232.5,222.594 222.5,224.5C 220.856,224.714 219.356,224.38 218,223.5C 217.544,222.256 218.044,221.423 219.5,221C 229.651,217.874 239.984,216.208 250.5,216C 251.381,216.708 252.047,217.542 252.5,218.5 Z"/></g>
<g><path style="opacity:1" fill="#225b7c" d="M 87.5,218.5 C 88.6049,219.6 89.9382,220.267 91.5,220.5C 92.1667,221.833 93.1667,222.833 94.5,223.5C 96.5,224.833 98.5,226.167 100.5,227.5C 99.3065,228.272 98.3065,229.272 97.5,230.5C 93.228,228.226 89.228,225.559 85.5,222.5C 86.1667,221.167 86.8333,219.833 87.5,218.5 Z"/></g>
<g><path style="opacity:1" fill="#7fbed3" d="M 215.5,226.5 C 203.628,229.468 191.628,231.801 179.5,233.5C 179.047,232.542 178.381,231.708 177.5,231C 189.229,227.066 201.229,224.732 213.5,224C 214.756,224.417 215.423,225.25 215.5,226.5 Z"/></g>
<g><path style="opacity:1" fill="#85c2d5" d="M 292.5,221.5 C 294.199,221.34 295.866,221.506 297.5,222C 298.956,222.423 299.456,223.256 299,224.5C 269.536,231.593 239.869,237.927 210,243.5C 208.338,243.612 207.171,242.946 206.5,241.5C 208.369,240.376 210.369,239.543 212.5,239C 239.355,233.449 266.021,227.616 292.5,221.5 Z"/></g>
<g><path style="opacity:1" fill="#dbeaee" d="M 276.5,198.5 C 274.058,200.226 271.391,201.726 268.5,203C 250.026,208.63 231.36,213.63 212.5,218C 198.764,219.346 185.431,222.346 172.5,227C 153.629,230.482 134.629,232.982 115.5,234.5C 115.137,235.183 114.804,235.85 114.5,236.5C 111.833,234.833 109.167,233.167 106.5,231.5C 111.926,231.538 117.593,231.372 123.5,231C 133.834,227.624 144.334,224.791 155,222.5C 156.68,223.547 158.514,224.213 160.5,224.5C 170.545,222.322 180.545,219.822 190.5,217C 219.623,212.788 248.29,206.621 276.5,198.5 Z"/></g>
<g><path style="opacity:1" fill="#83c4d6" d="M 197.5,242.5 C 199.857,242.337 202.19,242.503 204.5,243C 204.957,243.414 205.291,243.914 205.5,244.5C 203.926,245.631 202.259,245.798 200.5,245C 198.881,244.764 197.881,243.931 197.5,242.5 Z"/></g>
<g><path style="opacity:1" fill="#66a5bd" d="M 329.5,228.5 C 329.433,229.959 329.766,231.292 330.5,232.5C 281.445,242.977 232.445,253.31 183.5,263.5C 179.5,263.5 175.5,263.5 171.5,263.5C 171.5,262.833 171.167,262.5 170.5,262.5C 170.918,261.778 171.584,261.278 172.5,261C 171.619,260.292 170.953,259.458 170.5,258.5C 174.78,259.54 179.113,259.706 183.5,259C 232.133,248.507 280.799,238.34 329.5,228.5 Z"/></g>
<g><path style="opacity:1" fill="#498aa9" d="M 100.5,227.5 C 100.833,227.5 101.167,227.5 101.5,227.5C 102.579,229.543 104.246,230.876 106.5,231.5C 109.167,233.167 111.833,234.833 114.5,236.5C 120.217,240.025 126.217,243.025 132.5,245.5C 144.671,251.002 157.338,255.336 170.5,258.5C 170.953,259.458 171.619,260.292 172.5,261C 171.584,261.278 170.918,261.778 170.5,262.5C 144.015,256.417 119.681,245.75 97.5,230.5C 98.3065,229.272 99.3065,228.272 100.5,227.5 Z"/></g>
</svg>
