<svg xmlns="http://www.w3.org/2000/svg" viewBox="0 0 200 154" width="20" height="20" xmlns:v="https://vecta.io/nano"><style><![CDATA[.B{stroke-opacity:.99}.C{fill-opacity:.99}.D{stroke:#000}.E{stroke-opacity:0}.F{stroke:#afafaf}.G{fill-opacity:0}.H{fill:#afafaf}]]></style><g fill="none" stroke-width=".3"><use href="#B" class="D E"/><use href="#C" stroke="#f3f3f3"/><use href="#D" class="D E"/><use href="#E" stroke="#9f9f9f" class="B"/><use href="#F" stroke="#5b5b5b"/><use href="#G" stroke="#f6f6f6"/><use href="#H" stroke="#b9b9b9"/><use href="#I" stroke="#313131"/><use href="#J" stroke="#b7b7b7"/><use href="#K" stroke="#818181"/><use href="#L" stroke="#b9b9b9"/><use href="#M" stroke="#4d4d4d" class="B"/><use href="#N" stroke="gray"/><use href="#O" stroke="#a0a0a0"/><use href="#P" stroke="#626262"/><use href="#Q" stroke="#b1b1b1"/><use href="#R" stroke="#b2b2b2"/><use href="#S" stroke="#888"/><use href="#T" stroke="#414141" class="B"/><use href="#U" stroke="#8b8b8b"/><use href="#V" stroke="#141414"/><use href="#W" stroke="#a9a9a9"/><use href="#X" stroke="#909090"/><use href="#Y" stroke="#5c5c5c"/><use href="#Z" stroke="#a0a0a0"/><use href="#a" stroke="#121212"/><use href="#b" stroke="#cbcbcb"/><use href="#c" stroke="#1c1c1c" class="B"/><use href="#d" stroke="#9f9f9f"/><use href="#e" stroke="#7b7b7b"/><use href="#f" stroke="#797979"/><use href="#g" class="D E"/><use href="#h" stroke="#777"/><use href="#i" stroke="#747474"/><use href="#j" stroke="#858585"/><use href="#k" class="F"/><use href="#l" stroke="#606060"/><use href="#m" stroke="#838383"/><use href="#n" stroke-opacity=".01" class="D"/><use href="#o" stroke="#4c4c4c"/><use href="#p" stroke="#9c9c9c"/><use href="#q" stroke="#939393"/><use href="#r" stroke="#252525"/><use href="#s" stroke="#7d7d7d"/><use href="#t" stroke="#5a5a5a"/><path d="M17 97c-.82-.82.74.74 0 0z" stroke="#aaa"/><use href="#u" stroke="#838383"/><use href="#v" stroke="#6e6e6e"/><use href="#w" stroke="#939393"/><use href="#x" class="F"/><use href="#y" stroke="#dedede"/><use href="#z" stroke="#656565" stroke-opacity=".97"/><use href="#AA" stroke="#8d8d8d"/><use href="#AB" stroke="#999" class="B"/><use href="#AC" stroke="#f9f9f9"/><use href="#AD" stroke="#909090"/><use href="#AE" class="F"/><use href="#AF" stroke="#b3b3b3"/><use href="#AG" stroke="#b2b2b2"/><use href="#AH" stroke="#b8b8b8"/><use href="#AI" stroke="#767676"/></g><use href="#B" class="G"/><use href="#C" fill="#f3f3f3"/><use href="#D" class="G"/><use href="#E" fill="#9f9f9f" class="C"/><use href="#F" fill="#5b5b5b"/><use href="#G" fill="#f6f6f6"/><use href="#H" fill="#b9b9b9"/><use href="#I" fill="#313131"/><use href="#J" fill="#b7b7b7"/><use href="#K" fill="#818181"/><use href="#L" fill="#b9b9b9"/><use href="#M" fill="#4d4d4d" class="C"/><use href="#N" fill="gray"/><use href="#O" fill="#a0a0a0"/><use href="#P" fill="#626262"/><use href="#Q" fill="#b1b1b1"/><use href="#R" fill="#b2b2b2"/><use href="#S" fill="#888"/><use href="#T" fill="#414141" class="C"/><use href="#U" fill="#8b8b8b"/><use href="#V" fill="#141414"/><use href="#W" fill="#a9a9a9"/><use href="#X" fill="#909090"/><use href="#Y" fill="#5c5c5c"/><use href="#Z" fill="#a0a0a0"/><use href="#a" fill="#121212"/><use href="#b" fill="#cbcbcb"/><use href="#c" fill="#1c1c1c" class="C"/><use href="#d" fill="#9f9f9f"/><use href="#e" fill="#7b7b7b"/><use href="#f" fill="#797979"/><use href="#g" class="G"/><use href="#h" fill="#777"/><use href="#i" fill="#747474"/><use href="#j" fill="#858585"/><use href="#k" class="H"/><use href="#l" fill="#606060"/><use href="#m" fill="#838383"/><use href="#n" fill-opacity=".01"/><use href="#o" fill="#4c4c4c"/><use href="#p" fill="#9c9c9c"/><use href="#q" fill="#939393"/><use href="#r" fill="#252525"/><use href="#s" fill="#7d7d7d"/><use href="#t" fill="#5a5a5a"/><path d="M17 97c-.82-.82.74.74 0 0z" fill="#aaa"/><use href="#u" fill="#838383"/><use href="#v" fill="#6e6e6e"/><use href="#w" fill="#939393"/><use href="#x" class="H"/><use href="#y" fill="#dedede"/><use href="#z" fill="#656565" fill-opacity=".97"/><use href="#AA" fill="#8d8d8d"/><use href="#AB" fill="#999" class="C"/><use href="#AC" fill="#f9f9f9"/><use href="#AD" fill="#909090"/><use href="#AE" class="H"/><use href="#AF" fill="#b3b3b3"/><use href="#AG" fill="#b2b2b2"/><use href="#AH" fill="#b8b8b8"/><use href="#AI" fill="#767676"/><defs ><path id="B" d="M0 69c3.16-10.37 7.72-21.75 21-24 10.58-1.79 7.01-5.98 6.07-12.07-.93-6.1-9.12-13.66-5.07-15.93 8.02-4.49 20.13-1.75 29-5 8.87-3.24 19.8-3.29 29.02-5.98C89.25 3.34 100.28 3.37 109 0H0v69z"/><path id="C" d="M22 17c4.75 7.05 7.89 14.89 10 23l88-18c-1.25-7.76-4.9-14.82-8-22h-3c-8.72 3.37-19.75 3.34-28.98 6.02C70.8 8.71 59.87 8.76 51 12c-8.87 3.25-20.98.51-29 5z"/><path id="D" d="M120 22c6.78-1.24 16.95-4.36 24-3s14.86-4.77 21 0c.43.34.9 1.95 1 2 5.39-.09 20.19 5.64 20 13-.03 1.08-1.07 3.4-2 4 3.68-.48 4.3-1.77 6 2 .12.26.79 1.63 1 2 .65 1.14.87 1.6 1 2 .53 1.63 1.37 3.44 2 5 1.26 3.09 1.78 5.21 2 9 .16 2.8 1 .86-1 3-.47.5-.6 1.55-1 2 .2 1.04 2.65 2.22 3 4 1.95 9.75-6.22 21.73-12.9 27.1-6.67 5.37-22.44 6.27-31.1 8.9-2.02.61-3.88 1.59-6 2 2.77 2.82 7.64 3.71 10 7l5 3c10.07 5.49 25.51 9.16 30 20-29.78 6.82-60.61 12.12-90 19h98V0h-88c3.1 7.18 6.75 14.24 8 22z"/><path id="E" d="M21 45c4.58.58 10.58 3.71 16 1-1.26-1.89-4.8-1.05-6-3 15.91-2.61 32.07 8.24 37 23 1.24 2.72 2.3 4.79 3 8 .06-.81 1.05-2.5 1-4-4.79-14.36-16.06-26.57-31-30 16.55-1.83 33.36-6.84 49.67-9.33S123.56 21.8 140 21s25.51 17.87 30 30c.19-.62 1.75-1.76 1-3 7.26-.26 13.76-3.51 21-4-.13-.4-.35-.86-1-2-6.39-1.98-14.99 7.12-21 3 5.65-3.56 13.42-3.25 20-5-1.7-3.77-2.32-2.48-6-2-5.41.71-13.12 3.69-17 1 5.73-2.4 12.62-3.69 19-5 .19-7.36-14.61-13.09-20-13-3.57.06-6.41 1.1-10 1 2.2-2.42 6.26-1.31 9-3-6.14-4.77-13.95 1.36-21 0s-17.22 1.76-24 3L32 40c-2.11-8.11-5.25-15.95-10-23-4.05 2.27 4.14 9.83 5.07 15.93.94 6.09 4.51 10.28-6.07 12.07z"/><path id="F" d="M166 21c-.1-.05-.57-1.66-1-2-2.74 1.69-6.8.58-9 3 3.59.1 6.43-.94 10-1z"/><path id="G" d="M72 70c1.2 3.61 2.7 7.8 3 12 .09 1.32-.01 2.68 0 4 3.17-6.63 18.56-4.49 23-5-5.4-1.73 6.71-6.08 11.02-5.98 4.31.11 13.53-3.17 18.05-3.95s4.98.19 9-2c4.02-2.18 4.99 1.2 6.93 1.93 1.45-.33 5.35-.58 7-1-1.47-.78-.83-2.56-1-4 2.44 1.19 5.36-2.61 7 0 3.1.69 12.64-1.96 15 3 .08-.49 0-1 0-1 0-5.7.28-11.59-1-17-4.49-12.13-13.56-30.8-30-30s-33.02 7.18-49.33 9.67S57.55 38.17 41 40c14.94 3.43 26.21 15.64 31 30m65-43c-19.47 6.37-42.46 11.05-63 13 19.52-6.24 42.55-10.29 63-13m9 12c-5.7-1.07-15.16 6.86-18 0 5.6.71 15.22-6.63 18 0m-23 5c-6.62.16-14.63 3.61-21.01 3.99-6.37.39-15.42 6.56-17.99.01 6.09 1.41 12.83-3.8 19.22-3.78 6.4.03 16.35-6.26 19.78-.22m22 11c-16.51 2.59-32.38 7.72-49 10 .76-5.99 9.57-4.82 14.67-6.33 5.1-1.5 12.79-3.1 18-4 5.22-.9 14.67-5.59 16.33.33M95 66c-6.91.26.6-7.81 0 0z"/><path id="H" d="M137 27c-20.45 2.71-43.48 6.76-63 13 20.54-1.95 43.53-6.63 63-13z"/><path id="I" d="M184 38c.93-.6 1.97-2.92 2-4-6.38 1.31-13.27 2.6-19 5 3.88 2.69 11.59-.29 17-1z"/><path id="J" d="M146 39c-2.78-6.63-12.4.71-18 0 2.84 6.86 12.3-1.07 18 0z"/><path id="K" d="M191 42c-.21-.37-.88-1.74-1-2-6.58 1.75-14.35 1.44-20 5 6.01 4.12 14.61-4.98 21-3z"/><path id="L" d="M123 44c-3.43-6.04-13.38.25-19.78.22C96.83 44.2 90.09 49.41 84 48c2.57 6.55 11.62.38 17.99-.01 6.38-.38 14.39-3.83 21.01-3.99z"/><path id="M" d="M21 45C7.72 47.25 3.16 58.63 0 69v9c1.13.57 1.12 2.52 3 2-.55 1.01-1.98 1.44-3 2v4c1.53 7.9 4.76 17.91 9.97 25.03C15.19 118.14 22.95 126.42 33 126c1.58-.51 3.2-4.82 6.08-3.06 2.88 1.75 5.94-4.87 3.92-5.94 3.16.93 4.33-2.55 6-4-.8-2.37-2.61-2.85 1-4 .85-2.37 1.67-4.56-1-6-4.87 6-8.5 21.29-20 19-11.51-2.3-15.09-9.49-20.77-18.23S2.61 81.88 3 72s6.66-20.96 17-22c10.35-1.03 18.43 7.71 23 16 .85.23 2.34-.53 3-1 3.08-2.22 4.96-7.6 10-6-.74-2.2-4.33.31-5-2-8.44.24-12.93-2.7-19-8 3.66-2.45 8.67-2.98 13-2-2.95 2.48 10.51 2.7 12 9 3.63 4.21 5.65 8.05 8 13 .27.56.69 1.22 1 2 .29.72.7 1.29 1 2 1.41 3.34.93 7.3 1 11 3.29-2.84.94-14.13 0-18-4.93-14.76-21.09-25.61-37-23 1.2 1.95 4.74 1.11 6 3-5.42 2.71-11.42-.42-16-1z"/><path id="N" d="M170 51c1.28 5.41 1 11.3 1 17 .38.83 1.1 2.42 2 3v-4c.35-3.97-.26-8.02 0-12 7.14-1.6 13.51-5.64 21-6-.63-1.56-1.47-3.37-2-5-7.24.49-13.74 3.74-21 4 .75 1.24-.81 2.38-1 3z"/><path id="O" d="M51 57c1.89-.05 4.92.76 6-1-1.49-6.3-14.95-6.52-12-9-4.33-.98-9.34-.45-13 2 6.07 5.3 10.56 8.24 19 8z"/><path id="P" d="M173 67c1.44-2.7 6.42-6.75 10.07-5.93 3.66.83 10.77-4.3 12.93-3.07-.22-3.79-.74-5.91-2-9-7.49.36-13.86 4.4-21 6-.26 3.98.35 8.03 0 12z"/><path id="Q" d="M49 103c-.21-.11 0-1 0-1-1.11-1.72 1-9.87 1-13v-1c-1.29-7.87-3.1-14.93-7-22-4.57-8.29-12.65-17.03-23-16C9.66 51.04 3.39 62.12 3 72s-.45 23.03 5.23 31.77S17.49 119.7 29 122c11.5 2.29 15.13-13 20-19m-6-6c-2.84-12.77-1.15-23.06-13.25-32.75C17.66 54.56 5.07 70.22 9 84c-5.55-12.38 6.22-30.8 19.23-22.23C41.24 70.35 43.05 82.58 43 97m-30-1c1.62 16.01 27.45 23.29 28 3 2.84 10.21-10.22 18.53-20 14-3.11-7.84-12.83-16.31-12-27 1.99 2.32 2.02 6.03 3 9 2.43-4.37 2.99 2.8 6-2 1.25 7.92 14.69 11.84 15 1-3.84 7.14-14.05 3.31-15-4 2.13 2.62 5.26-.13 6 4 6.21-.25 9.58-11.53 2.75-15.75C19.91 74.04 19.31 87.07 18 89c-3.48-2.37-2.39-2.62-2.22-8.22S18.47 71.39 24 72s7.15 4.37 8 9c-2.67-12.14-20.53-8-14 4-3.12-9.18 8.54-11.86 11.77-4.77S30.73 95.34 23 96c8.62 3.93 10.16-7.7 9-14 1.77 2.98 1.13 2.68 3 0-2.37 6.76.04 10.67-2.77 17.23-2.82 6.56-10.28 1.88-14.23-1.23.32 2.5 1.61 4.43 3 7 .93-2.89 5.54-.71 2 1 2.93 1.24 6.04 1.14 9 0-3.94-2.99 4.17-5.17 4.77-11.23.6-6.05-.15-13.14-3.08-18.46C30.77 70.98 25.6 66.47 19 68c2.46-2.98 7.85.84 10-1-4.07-2.85-9.93-2.78-14 0 5.47 1.77-2.57 4.58-2 10-5.15-12.39 12.03-18.49 19.25-8.25s7.25 19.33 3.43 31.93S16.39 106.39 13 96m-1-17c1.26 7.32-2.94 4.99 0 0m13 1c4.29 1.02 3.85 12.5-1.01 10.99S19.65 78.73 25 80M7 89c-1.47 19.91 29.16 41.5 38 16-5.75 28.37-43.94 4.19-38-16z"/><path id="R" d="M145 55c-1.66-5.92-11.11-1.23-16.33-.33-5.21.9-12.9 2.5-18 4-5.1 1.51-13.91.34-14.67 6.33 16.62-2.28 32.49-7.41 49-10z"/><path id="S" d="M51 57c.67 2.31 4.26-.2 5 2-5.04-1.6-6.92 3.78-10 6 1.85.28 3 5.49 3 7 5.16-1.6 10.94-1.01 16-3-2.35-4.95-4.37-8.79-8-13-1.08 1.76-4.11.95-6 1z"/><path id="T" d="M173 67v4c-.9-.58-1.62-2.17-2-3 0 0 .08.51 0 1-.69 4.19-1.53 8.01-3 12-1.07 2.91-2.2 5.37-4 8-3.15 4.59-6.36 8.01-11 11-13.11 8.46-31.22 7.4-46.07 11.93C92.07 116.45 73.3 118.49 59 121c2.91-.75 4.51-3.61 7-5 1.25-1.64 4.25-6.16 5-8 .45-1.1.59-2.77 1-4-.38.22-1.62-.22-2 0-4.98 2.85-4.63 11.14-10.75 14.25-6.11 3.12-12.19 5.56-19.25 6.75 1.7.43 6.2 4.8 8 6 .96.19 2.03-.16 3 0-.21-.38 0-1 0-1h-1c-1.64-.8-3.19-2.43-4-4 12 .34 23.67-4.24 35.07-5.93 11.4-1.68 22.81-5.31 33.95-7.05 11.15-1.73 22.82-7.43 32.98-4.02.23.26.73.86 1 1l4 2c.76.41 2.03 1.43 3 1 .26-.12.66-.98 1-1-2.36-3.29-7.23-4.18-10-7 2.12-.41 3.98-1.39 6-2 10.72-6.17 17.77-18.26 20-30 8.05-1.7 15.92-4.33 24-6-.35-1.78-2.8-2.96-3-4-3.49 3.9-11.54 1.65-16 4 4.51-3.36 11.5-3.71 17-6 2-2.14 1.16-.2 1-3-2.16-1.23-9.27 3.9-12.93 3.07-3.65-.82-8.63 3.23-10.07 5.93z"/><path id="U" d="M43 97c.05-14.42-1.76-26.65-14.77-35.23C15.22 53.2 3.45 71.62 9 84c-3.93-13.78 8.66-29.44 20.75-19.75C41.85 73.94 40.16 84.23 43 97z"/><path id="V" d="M194 63c.4-.45.53-1.5 1-2-5.5 2.29-12.49 2.64-17 6 4.46-2.35 12.51-.1 16-4z"/><path id="W" d="M95 66c.6-7.81-6.91.26 0 0z"/><path id="X" d="M13 96c3.39 10.39 18.86 17.28 22.68 4.68s3.79-21.69-3.43-31.93S7.85 64.61 13 77c-.57-5.42 7.47-8.23 2-10 4.07-2.78 9.93-2.85 14 0-2.15 1.84-7.54-1.98-10 1 6.6-1.53 11.77 2.98 14.69 8.31 2.93 5.32 3.68 12.41 3.08 18.46-.6 6.06-8.71 8.24-4.77 11.23-2.96 1.14-6.07 1.24-9 0 3.54-1.71-1.07-3.89-2-1-1.39-2.57-2.68-4.5-3-7 3.95 3.11 11.41 7.79 14.23 1.23 2.81-6.56.4-10.47 2.77-17.23-1.87 2.68-1.23 2.98-3 0 1.16 6.3-.38 17.93-9 14 7.73-.66 10-8.68 6.77-15.77S14.88 75.82 18 85c-6.53-12 11.33-16.14 14-4-.85-4.63-2.47-8.39-8-9s-8.05 3.18-8.22 8.78S14.52 86.63 18 89c1.31-1.93 1.91-14.96 8.75-10.75C33.58 82.47 30.21 93.75 24 94c-.74-4.13-3.87-1.38-6-4 .95 7.31 11.16 11.14 15 4-.31 10.84-13.75 6.92-15-1-3.01 4.8-3.57-2.37-6 2-.98-2.97-1.01-6.68-3-9-.83 10.69 8.89 19.16 12 27 9.78 4.53 22.84-3.79 20-14-.55 20.29-26.38 13.01-28-3m4 1c.74.74-.82-.82 0 0z"/><path id="Y" d="M43 66c3.9 7.07 5.71 14.13 7 22 3.98-6.25 13.36.01 18-4-.07-3.7.41-7.66-1-11-1.4 3.62-13.69 2.51-16 6-3.09-7.81 9.8-6.18 15-8-.31-.78-.73-1.44-1-2-5.06 1.99-10.84 1.4-16 3 0-1.51-1.15-6.72-3-7-.66.47-2.15 1.23-3 1z"/><path id="Z" d="M150 70c2.04-.51 7.25-.62 6-4-1.64-2.61-4.56 1.19-7 0 .17 1.44-.47 3.22 1 4z"/><path id="a" d="M68 84c-4.64 4.01-14.02-2.25-18 4v1c6.61 1.21 12.68-2.66 19-3 .06 2.12.23 4.23-1 6-.49 4.12-.43 11.19-3.77 14.23-3.34 3.03-11.34 1.86-14.23 2.77-3.61 1.15-1.8 1.63-1 4-1.67 1.45-2.84 4.93-6 4 2.02 1.07-1.04 7.69-3.92 5.94-2.88-1.76-4.5 2.55-6.08 3.06 2.3-.09 4.66-.61 7-1 7.06-1.19 13.14-3.63 19.25-6.75 6.12-3.11 5.77-11.4 10.75-14.25 1.99-5.32 3.15-13.2 3-19-.09-3.59-1.24-7.53-2-11-.7-3.21-1.76-5.28-3-8 .94 3.87 3.29 15.16 0 18z"/><path id="b" d="M150 70c-1.65.42-5.55.67-7 1-14.79 3.35-29.85 8.25-45 10-4.44.51-19.83-1.63-23 5 .03 4.99-.42 10.38-2 15 3.68-6.18 15.09-7.85 22-7 1.58.19.93.29 2 1 .35.23 1 0 1 0 2.04-5.16 16.84-5.17 23.07-6.93 6.24-1.76 18.94-4.89 25.93-5.07.5-.01 1.66.23 2 0 3.51-2.38 6.74-.88 8-1 3.64-1.94 9.2.37 11-1 1.47-3.99 2.31-7.81 3-12-2.36-4.96-11.9-2.31-15-3 1.25 3.38-3.96 3.49-6 4z"/><path id="c" d="M153 103c8.66-2.63 24.43-3.53 31.1-8.9 6.68-5.37 14.85-17.35 12.9-27.1-8.08 1.67-15.95 4.3-24 6-2.23 11.74-9.28 23.83-20 30z"/><path id="d" d="M98 81c15.15-1.75 30.21-6.65 45-10-1.94-.73-2.91-4.11-6.93-1.93-4.02 2.19-4.48 1.22-9 2s-13.74 4.06-18.05 3.95C104.71 74.92 92.6 79.27 98 81z"/><path id="e" d="M71 74c.76 3.47 1.91 7.41 2 11 .18-.57 1.9-2.48 2-3-.3-4.2-1.8-8.39-3-12 .05 1.5-.94 3.19-1 4z"/><path id="f" d="M67 73c-.3-.71-.71-1.28-1-2-5.2 1.82-18.09.19-15 8 2.31-3.49 14.6-2.38 16-6z"/><path id="g" d="M0 82c1.02-.56 2.45-.99 3-2-1.88.52-1.87-1.43-3-2v4z"/><path id="h" d="M12 79c-2.94 4.99 1.26 7.32 0 0z"/><path id="i" d="M25 80c-5.35-1.27-5.87 9.48-1.01 10.99S29.29 81.02 25 80z"/><path id="j" d="M149 83c.51 4.18 5.09.55 8-1-1.26.12-4.49-1.38-8 1z"/><path id="k" d="M157 82c-2.91 1.55-7.49 5.18-8 1-.34.23-1.5-.01-2 0-3.13 4.43-9.88 4.89-15.01 5.99-5.13 1.11-13.66 3.57-18 4-4.34.44-15.64 5.3-15.99 2.01 0 0-.65.23-1 0-.42 1.03-.08 2.44-2 2v-3c-6.91-.85-18.32.82-22 7l-1 3c-.41 1.23-.55 2.9-1 4 7.26-7.19 20.88-5.48 29.68-8.32 8.79-2.85 8.74-.97 15.39-3.61 6.65-2.63 10.67.22 16.15-2.85S142.8 92.39 148 90s11.59.63 16-1c1.8-2.63 2.93-5.09 4-8-1.8 1.37-7.36-.94-11 1z"/><path id="l" d="M73 85c.15 5.8-1.01 13.68-3 19 .38-.22 1.62.22 2 0l1-3c1.58-4.62 2.03-10.01 2-15-.01-1.32.09-2.68 0-4-.1.52-1.82 2.43-2 3z"/><path id="m" d="M98 95c.35 3.29 11.65-1.57 15.99-2.01 4.34-.43 12.87-2.89 18-4 5.13-1.1 11.88-1.56 15.01-5.99-6.99.18-19.69 3.31-25.93 5.07-6.23 1.76-21.03 1.77-23.07 6.93z"/><path id="n" d="M0 154h96c-7.61-2.09-15.74-6.01-23-9-9.37-1.93-17.32-8.89-25-14-1.8-1.2-6.3-5.57-8-6-2.34.39-4.7.91-7 1-10.05.42-17.81-7.86-23.03-14.97C4.76 103.91 1.53 93.9 0 86v68z"/><path id="o" d="M50 89c0 3.13-2.11 11.28-1 13 .63-.19 1.76-1.75 3-1-.21-3.46 1.7-6.4 1-10 3.43 4.55 10.14.47 15 1 1.23-1.77 1.06-3.88 1-6-6.32.34-12.39 4.21-19 3z"/><path id="p" d="M71 108c-.75 1.84-3.75 6.36-5 8 6.43-4.28 14.74-4.34 22-6 6.91-1.58 14.07-3.63 21.02-4.98 6.96-1.34 14.26-3.47 21.05-4.95 6.79-1.47 15.35-4.28 19.93-2.07.04.02 3.91 2.2 3 2 4.64-2.99 7.85-6.41 11-11-4.41 1.63-10.8-1.39-16 1s-10.3.15-15.78 3.22-9.5.22-16.15 2.85c-6.65 2.64-6.6.76-15.39 3.61-8.8 2.84-22.42 1.13-29.68 8.32z"/><path id="q" d="M7 89c-5.94 20.19 32.25 44.37 38 16-8.84 25.5-39.47 3.91-38-16z"/><path id="r" d="M49 102s-.21.89 0 1c2.67 1.44 1.85 3.63 1 6 2.89-.91 10.89.26 14.23-2.77C67.57 103.19 67.51 96.12 68 92c-4.86-.53-11.57 3.55-15-1 .7 3.6-1.21 6.54-1 10-1.24-.75-2.37.81-3 1z"/><path id="s" d="M97 95c-1.07-.71-.42-.81-2-1v3c1.92.44 1.58-.97 2-2z"/><path id="t" d="M88 110c4.83.35 13.13-.17 20.02-1.98 6.9-1.8 14.39-4.08 21.2-4.8 6.81-.71 14.41-5.46 20.78-5.22-4.58-2.21-13.14.6-19.93 2.07-6.79 1.48-14.09 3.61-21.05 4.95-6.95 1.35-14.11 3.4-21.02 4.98z"/><path id="u" d="M88 110c-7.26 1.66-15.57 1.72-22 6-2.49 1.39-4.09 4.25-7 5 14.3-2.51 33.07-4.55 47.93-9.07 14.85-4.53 32.96-3.47 46.07-11.93.91.2-2.96-1.98-3-2-6.37-.24-13.97 4.51-20.78 5.22-6.81.72-14.3 3-21.2 4.8-6.89 1.81-15.19 2.33-20.02 1.98z"/><path id="v" d="M50 130c3.64-3.79 14.38-.43 19.67-3.33 5.3-2.9 13.23-2.86 19.35-4.65 6.13-1.78 13.82-1.84 20.05-3.95 6.24-2.1 13.5-2.68 20-4 6.5-1.31 13.01-2.94 18.93-5.07-10.16-3.41-21.83 2.29-32.98 4.02-11.14 1.74-22.55 5.37-33.95 7.05C69.67 121.76 58 126.34 46 126c.81 1.57 2.36 3.2 4 4z"/><path id="w" d="M50 130h1c6.94 0 14.25-.7 20.67-2.33s13.06-3.38 19.4-4.6c6.34-1.21 13.2-2.04 19-4 5.81-1.95 14.78-1.92 19.95-4.05 5.18-2.12 15.96-.09 18.98-5.02-.27-.14-.77-.74-1-1-5.92 2.13-12.43 3.76-18.93 5.07-6.5 1.32-13.76 1.9-20 4-6.23 2.11-13.92 2.17-20.05 3.95-6.12 1.79-14.05 1.75-19.35 4.65-5.29 2.9-16.03-.46-19.67 3.33z"/><path id="x" d="M51 130s-.21.62 0 1c.79.13 2.19.74 3 1 9.09 2.9 21.11-2.77 30-5 12.42-3.12 25.28-5 38-7 1.62-.26 3.72-1.07 6-1 5.24-1.19 11.21-3.96 17-5 1.91-.34 6.78-2.01 8-2-1.11-.6-2.78-1.37-4-2-3.02 4.93-13.8 2.9-18.98 5.02-5.17 2.13-14.14 2.1-19.95 4.05-5.8 1.96-12.66 2.79-19 4-6.34 1.22-12.98 2.97-19.4 4.6S57.94 130 51 130z"/><path id="y" d="M145 114c.37.09 1.84 1.44 2 2-6.03 1.22-13.35 4.99-19 3-2.28-.07-4.38.74-6 1-3.19 1.66-14.19 5.99-21.22 6.78-7.04.79-4.03-.93-8.78 1.22-4.75 2.14-5.76-.88-8-1-8.89 2.23-20.91 7.9-30 5 1.74.97 4.21 2.91 6 4 17.12 3.36 35.44-7.18 51.68-7.32 16.24-.15 33.4-10 48.32-12.68-1.38-.83-2.79-2.4-4-3-.97.43-2.24-.59-3-1-1.22-.01-6.09 1.66-8 2z"/><path id="z" d="M156 113c1.21.6 2.62 2.17 4 3 .68.41 1.32.65 2 1-.94-1.16.07-1.8 0-2l-5-3c-.34.02-.74.88-1 1z"/><path id="AA" d="M128 119c5.65 1.99 12.97-1.78 19-3-.16-.56-1.63-1.91-2-2-5.79 1.04-11.76 3.81-17 5z"/><path id="AB" d="M162 117c9.24 4.74 19.22 9.34 27 16-18.64 5.42-38.08 7.54-57 12s-37.78 10.09-56 0c-.3-.03-1.87.23-3 0 7.26 2.99 15.39 6.91 23 9h6c29.39-6.88 60.22-12.18 90-19-4.49-10.84-19.93-14.51-30-20 .07.2-.94.84 0 2z"/><path id="AC" d="M60 136c5.08 3.08 10.58 6.79 16 9 18.22 10.09 37.08 4.46 56 0s38.36-6.58 57-12c-7.78-6.66-17.76-11.26-27-16-.68-.35-1.32-.59-2-1-14.92 2.68-32.08 12.53-48.32 12.68-16.24.14-34.56 10.68-51.68 7.32m98-13c-2.27 2.77-7.72 3.54-11 2 2.71-2.28 7.67-3.48 11-2m-15 4c-5.79 1.87-13.98 5.43-20 3 5.79-1.87 13.98-5.43 20-3m-21 4c-5.78 3.17-15.41 5.99-22 4 6.66-2.08 14.98-4.9 22-4m49 0c-9.73 2-20.27 5.66-30.07 6.93-9.81 1.27-22.26 6.62-29.93 3.07 18.51-1.07 40.53-11.17 60-10z"/><path id="AD" d="M84 127c2.24.12 3.25 3.14 8 1 4.75-2.15 1.74-.43 8.78-1.22 7.03-.79 18.03-5.12 21.22-6.78-12.72 2-25.58 3.88-38 7z"/><path id="AE" d="M158 123c-3.33-1.48-8.29-.28-11 2 3.28 1.54 8.73.77 11-2z"/><path id="AF" d="M143 127c-6.02-2.43-14.21 1.13-20 3 6.02 2.43 14.21-1.13 20-3z"/><path id="AG" d="M122 131c-7.02-.9-15.34 1.92-22 4 6.59 1.99 16.22-.83 22-4z"/><path id="AH" d="M171 131c-19.47-1.17-41.49 8.93-60 10 7.67 3.55 20.12-1.8 29.93-3.07 9.8-1.27 20.34-4.93 30.07-6.93z"/><path id="AI" d="M73 145c1.13.23 2.7-.03 3 0-5.42-2.21-10.92-5.92-16-9-1.79-1.09-4.26-3.03-6-4-.81-.26-2.21-.87-3-1-.97-.16-2.04.19-3 0 7.68 5.11 15.63 12.07 25 14z"/></defs></svg>
